<svg id="Layer_1" data-name="Layer 1" xmlns="http://www.w3.org/2000/svg" xmlns:xlink="http://www.w3.org/1999/xlink" viewBox="0 0 309.5 305.49"><defs><style>.cls-1{fill:url(#linear-gradient);}.cls-2{fill:#ececec;}.cls-3{fill:#473c8f;}.cls-10,.cls-4,.cls-9{fill:#fff;}.cls-5{fill:#f18f80;}.cls-6{opacity:0.64;}.cls-7{fill:#e8512f;}.cls-8{fill:none;}.cls-10,.cls-8,.cls-9{stroke:#473c8f;stroke-width:0.75px;}.cls-10,.cls-8{stroke-linecap:round;stroke-linejoin:round;}.cls-9{stroke-miterlimit:10;}</style><linearGradient id="linear-gradient" x1="4.35" y1="-42.84" x2="313.85" y2="-42.84" gradientTransform="translate(-4.35 285.23)" gradientUnits="userSpaceOnUse"><stop offset="0.01" stop-color="#544399"/><stop offset="1" stop-color="#825fb0"/></linearGradient></defs><title>moms_world</title><rect class="cls-1" y="179.29" width="309.5" height="126.2"/><circle class="cls-2" cx="153.8" cy="118.29" r="114.4"/><path class="cls-3" d="M90.1,121.41s-13.7-25.5,7.2-55.3,7.6-35.8,29.6-56.8a24.5,24.5,0,0,1,20.4-6.8s25.5-9.7,38.5,10.5.1,32.1,11.4,47.8,15.3,32.4,9.7,49.9-4.1,21.1-9.7,24.7C174.65,150.21,105.4,144.51,90.1,121.41Z" transform="translate(0 -0.01)"/><path class="cls-4" d="M135.8,71.77s-6.1,9.7-16.2,12-19.8.7-22.2,16.9-13.7,37.8-15.3,45.1-5.6,29,0,29.8,22.7,0,37.5-9.7,24.5-17.7,24.5-17.7,1.9,5,8.7,6.8,9,3.8,12,7.2,9.5,7.6,9.5,7.6,8.4-.4,9-1.4-5.6-6.3-6.8-10.3-.5-7-10.1-12.5-16.9-9.7-20.8-8.7-14.7,6.8-20.6,8.7-26.2,6.8-33.2,15.9l91.9,54.3c-6.8,16.4-19.2,13.9-26.2,14.9-4.8.7,1.6,6.2,7.5,6a35,35,0,0,0,25.7-12.4c14.9-17.9,10.9-53.7,8.9-65.1s.2-58.6,0-62.6-.8-12.7-16.1-14.7-19.3-9.3-19.3-9.3Z" transform="translate(0 -0.01)"/><path class="cls-5" d="M185.7,129.21a16.54,16.54,0,0,1-2,7.56c-4.1,6.7-3.9,15.9,4.1,25.8a44.09,44.09,0,0,1,9.4,27.1c0,25.6-22.4,46.4-49.9,46.4s-49.9-20.8-49.9-46.4a43.52,43.52,0,0,1,8.1-25.2h0c7.8-11.3,8.9-20.1,4.9-27.2a17.12,17.12,0,0,1-2.4-8.6c0-10,8.7-18.1,19.5-18.1s19.5,8.1,19.5,18.1c0-10,8.7-18.1,19.5-18.1s19.5,8.1,19.5,18.1Z" transform="translate(0 -0.01)"/><g class="cls-6"><path class="cls-7" d="M183.7,136.77a18.05,18.05,0,0,0,2.1-7.6v-.5c0-9.6-8.1-17.5-18.3-18.1,3.7,3.6,7.8,9,8.1,15.7a33.79,33.79,0,0,1-5.8,20.8s18.3,27,15.8,45.9-12.2,30.8-35.7,43c26.4-1.3,47.3-21.5,47.3-46.3a44.09,44.09,0,0,0-9.4-27.1C179.8,152.77,179.65,143.61,183.7,136.77Z" transform="translate(0 -0.01)"/></g><g class="cls-6"><path class="cls-7" d="M146.8,131.71s-.2,9.6-4.8,12.4a16.43,16.43,0,0,1,11-.5S147.4,138,146.8,131.71Z" transform="translate(0 -0.01)"/></g><path class="cls-8" d="M135.8,71.77s-6.1,9.7-16.2,12-19.8.7-22.2,16.9-13.7,37.8-15.3,45.1-5.6,29,0,29.8" transform="translate(0 -0.01)"/><path class="cls-9" d="M127.4,53.51s11,27.9,23.2,27.9c6.6,0,21.3-13.3,23-28.2a125.63,125.63,0,0,0-.5-31.3H127.5C127.4,21.77,126.3,45.21,127.4,53.51Z" transform="translate(0 -0.01)"/><path class="cls-8" d="M188.5,227.11c20.1-22.5,12.9-56.1,10.9-67.6s.2-58.6,0-62.6-.8-12.7-16.1-14.7S164.8,74,164.8,74" transform="translate(0 -0.01)"/><path class="cls-10" d="M82,175.61c5.6.8,22.7,0,37.5-9.7s24.5-17.7,24.5-17.7,1.9,5,8.7,6.8,9,3.8,12,7.2,9.5,7.6,9.5,7.6,8.4-.4,9-1.4-5.6-6.3-6.8-10.3-.5-7-10.1-12.5-16.9-9.7-20.8-8.7-14.7,6.8-20.6,8.7-26.2,6.8-33.2,15.9" transform="translate(0 -0.01)"/><path class="cls-10" d="M182.9,222.41c-16.5,6.7-17.1,8.6-24.2,8.4-4.8-.1-1.6,5.3,4.2,6.2,1.6.2,14-1.2,14-1.2a116.66,116.66,0,0,0,11.7-8.7" transform="translate(0 -0.01)"/><path class="cls-3" d="M127.4,81.11s-21.2-16.1,6.2-28.2,32.8-33,32.8-33c-5.9,17.7,3.5,28.2,12.3,34.6s7.1,16.9,7.1,16.9,10.7-8.2,8.6-15.7-2-16.2-2.3-21.4-6-32.6-25.8-34.2c-12.7-1-18.8,5.5-18.8,5.5s-17.1,1.1-24.8,14.2S106.3,68.31,127.4,81.11Z" transform="translate(0 -0.01)"/></svg>