<svg id="Layer_1" data-name="Layer 1" xmlns="http://www.w3.org/2000/svg" xmlns:xlink="http://www.w3.org/1999/xlink" viewBox="0 0 309.5 297.6"><defs><style>.cls-1{fill:url(#linear-gradient);}.cls-2{fill:#ececec;}.cls-10,.cls-3,.cls-7{fill:#fff;}.cls-11,.cls-12,.cls-13,.cls-3{stroke:#e8512f;}.cls-11,.cls-12,.cls-13,.cls-3,.cls-5,.cls-7{stroke-linecap:round;stroke-linejoin:round;}.cls-3,.cls-5{stroke-width:0.75px;}.cls-4{fill:#9493c8;}.cls-11,.cls-12,.cls-13,.cls-5{fill:none;}.cls-5{stroke:#473c8f;stroke-dasharray:4.07;}.cls-6{fill:#473c8f;}.cls-7{stroke:#d9d9d9;stroke-width:0.47px;}.cls-8{fill:#e8512f;}.cls-9{fill:#d9d9d9;}.cls-10{opacity:0.24;isolation:isolate;}.cls-11{stroke-width:0.58px;}.cls-12{stroke-width:0.6px;}.cls-13{stroke-width:0.62px;}</style><linearGradient id="linear-gradient" x1="4.55" y1="-43.57" x2="314.05" y2="-43.57" gradientTransform="translate(-4.55 278.07)" gradientUnits="userSpaceOnUse"><stop offset="0.01" stop-color="#544399"/><stop offset="1" stop-color="#825fb0"/></linearGradient></defs><title>Startup</title><rect class="cls-1" y="171.4" width="309.5" height="126.2"/><circle class="cls-2" cx="154.7" cy="114.4" r="114.4"/><path class="cls-3" d="M231.9,157.8a4,4,0,0,1-4,4H82.9a4,4,0,0,1-4-4V74.2a4,4,0,0,1,4-4h145a4,4,0,0,1,4,4Z"/><rect class="cls-4" x="85" y="76.7" width="141" height="78.5"/><path class="cls-3" d="M255.3,195c.3.4-2.2.6-4.8.6H60.6c-2.6,0-5.4-.3-5.1-.8l23-32.3c.3-.4,2.3-.7,4.6-.7h145c2.2,0,4.3.3,4.6.7Z"/><path class="cls-3" d="M255.3,196.3c0,1-2,1.8-4.6,1.8H60c-2.5,0-4.6-.8-4.6-1.8v-1.2c0-1,2-1.8,4.6-1.8H250.7c2.5,0,4.6.8,4.6,1.8Z"/><line class="cls-5" x1="94.1" y1="101.4" x2="213.5" y2="101.4"/><line class="cls-5" x1="94.1" y1="121.8" x2="145.4" y2="121.8"/><line class="cls-5" x1="101.4" y1="111.7" x2="214.1" y2="111.7"/><path class="cls-6" d="M242.8,145.4a4.49,4.49,0,0,1-4.46,4.5H213.9a4.49,4.49,0,0,1-4.5-4.46V91a4.49,4.49,0,0,1,4.46-4.5H238.3A4.49,4.49,0,0,1,242.8,91V145.4Z"/><path class="cls-7" d="M228.8,144.2a2.8,2.8,0,1,1-2.8-2.8,2.8,2.8,0,0,1,2.8,2.8Z"/><path class="cls-8" d="M213.3,139.5a.22.22,0,0,1-.2-.2V94.4a.22.22,0,0,1,.2-.2h25.5a.22.22,0,0,1,.2.2v44.9a.22.22,0,0,1-.2.2Z"/><path class="cls-9" d="M238.8,94.4v44.9H213.3V94.4h25.5m0-.5H213.3a.47.47,0,0,0-.5.44v45a.47.47,0,0,0,.44.5H238.8a.47.47,0,0,0,.5-.44v-45a.47.47,0,0,0-.44-.5Z"/><polygon class="cls-10" points="238.8 102.5 213.3 116 213.3 127.5 238.8 114 238.8 102.5"/><polygon class="cls-10" points="238.8 116.8 213.3 130.3 213.3 134.2 238.8 120.7 238.8 116.8"/><path class="cls-9" d="M238.8,94.4v44.9H213.3V94.4h25.5m0-.5H213.3a.47.47,0,0,0-.5.44v45a.47.47,0,0,0,.44.5H238.8a.47.47,0,0,0,.5-.44v-45a.47.47,0,0,0-.44-.5Z"/><line class="cls-11" x1="83.5" y1="169.1" x2="226.1" y2="169.1"/><line class="cls-12" x1="79" y1="175.7" x2="230.6" y2="175.7"/><line class="cls-13" x1="74.1" y1="182.6" x2="235.5" y2="182.6"/></svg>