<?xml version="1.0" encoding="utf-8"?>
<!-- Generator: Adobe Illustrator 23.0.3, SVG Export Plug-In . SVG Version: 6.00 Build 0)  -->
<svg version="1.1" id="Capa_1" xmlns="http://www.w3.org/2000/svg" xmlns:xlink="http://www.w3.org/1999/xlink" x="0px" y="0px"
	 viewBox="0 0 500 500" style="enable-background:new 0 0 500 500;" xml:space="preserve">
<style type="text/css">
	.st0{fill:none;}
	.st1{fill:#493C94;}
	.st2{fill:url(#SVGID_1_);}
	.st3{fill:url(#SVGID_2_);}
	.st4{fill:#928EC5;}
</style>
<g>
	<path class="st0" d="M239.5,230c0.1-0.5,0.1-1.1,0.1-1.7C239.6,228.9,239.5,229.4,239.5,230z"/>
	<path class="st0" d="M310.2,211.1L298.4,184c0,9-10,36.4-12.2,42.3c-0.1,0.2-0.3,0.3-0.4,0.5c-0.2-19.9-7.4-34.3-7.4-34.3
		c0,7.7-1.8,13.5-4.1,17.6l0,0c0,0,0,0,0,0c2.3-4.1,4.1-9.9,4.1-17.6c0,0,7.3,14.4,7.4,34.3c0.1-0.2,0.3-0.3,0.4-0.5
		c2.2-5.9,12.2-33.3,12.2-42.3L310.2,211.1l3.7-30.8l0,0L310.2,211.1z"/>
	<path class="st0" d="M257.2,209.9c-0.3,0.8-0.6,1.6-0.9,2.4C256.6,211.6,256.9,210.8,257.2,209.9z"/>
	<path class="st0" d="M268.7,217.1c-0.9,0.8-1.8,1.4-2.4,1.9C266.9,218.5,267.7,217.9,268.7,217.1z"/>
	<path class="st0" d="M273.2,211.7c-0.5,0.8-1,1.5-1.5,2.1C272.2,213.2,272.7,212.5,273.2,211.7z"/>
	<path class="st0" d="M260.2,194.4c0,0.9-0.1,1.8-0.1,2.6C260.1,196.2,260.2,195.3,260.2,194.4z"/>
	<path class="st0" d="M239.6,217.8c-0.1-1-0.1-2-0.2-3.1C239.5,215.8,239.5,216.8,239.6,217.8z"/>
	<path class="st0" d="M258,207.4c-0.3,0.8-0.5,1.7-0.8,2.5C257.5,209.1,257.8,208.3,258,207.4z"/>
	<path class="st0" d="M253.7,218.2c-0.4,0.7-0.8,1.5-1.1,2.2C253,219.7,253.3,219,253.7,218.2z"/>
	<path class="st0" d="M271.7,213.9c-0.5,0.7-1,1.2-1.5,1.8C270.7,215.1,271.2,214.5,271.7,213.9z"/>
	<path class="st0" d="M266.3,218.9c-0.3,0.2-0.6,0.4-0.8,0.5C265.7,219.3,265.9,219.1,266.3,218.9z"/>
	<path class="st0" d="M239.2,211.6c-0.2-2.8-0.5-5.5-0.8-8C238.6,206.2,238.9,208.9,239.2,211.6z"/>
	<path class="st0" d="M259.7,187.9C259.7,187.9,259.7,187.9,259.7,187.9c0,0,5.2,21,5.2,31.8c0,0,0.2-0.1,0.5-0.3
		c-0.3,0.2-0.5,0.3-0.5,0.3C264.9,208.8,259.7,187.9,259.7,187.9z"/>
	<path class="st0" d="M239.1,233c-0.2,1.1-0.5,2.2-0.8,3c-0.1,0.3-0.2,0.6-0.3,0.9c0.1-0.3,0.2-0.6,0.3-0.9
		C238.6,235.1,238.8,234.1,239.1,233z"/>
	<path class="st0" d="M239.1,233c0.2-0.9,0.3-1.9,0.4-3C239.4,231,239.2,232,239.1,233z"/>
	<path class="st0" d="M239.4,214.7c-0.1-1-0.2-2.1-0.2-3.1C239.2,212.7,239.3,213.7,239.4,214.7z"/>
	<path class="st0" d="M237.8,237.5c0-0.1,0-0.2,0-0.3C237.8,237.3,237.8,237.4,237.8,237.5z"/>
	<path class="st0" d="M273.2,211.7c0.3-0.4,0.5-0.8,0.7-1.2l0,0C273.7,210.9,273.5,211.3,273.2,211.7z"/>
	<path class="st1" d="M397.8,14.5c6.1-1.9,11.1-2.9,14.4-3.1C409,11.5,404,12.6,397.8,14.5z"/>
	<g>
		<linearGradient id="SVGID_1_" gradientUnits="userSpaceOnUse" x1="279.6068" y1="497.8517" x2="279.6068" y2="212.7062">
			<stop  offset="5.586592e-03" style="stop-color:#544399"/>
			<stop  offset="1" style="stop-color:#825FB0"/>
		</linearGradient>
		<path class="st2" d="M386.5,212.7l-8.7,34.1l-8.9-32.6c-0.9,7.1-8.4,23-14.1,34.4c12.9,30.8,21.3,59.5,19.3,80.5
			c-4.5,52-33.4,90.8-83.2,111.8c-12.6,4.7-27.5,7.8-43.1,7.8c-39.7,0-80.7-17.2-115.3-45.7c50.3,69.4,126.6,106.8,187.4,91.5
			c55-14,92.1-48.1,104.7-105.6C434,348.9,409.7,275.2,386.5,212.7z"/>
		<linearGradient id="SVGID_2_" gradientUnits="userSpaceOnUse" x1="218.2529" y1="440.8882" x2="218.2529" y2="180.3381">
			<stop  offset="5.586592e-03" style="stop-color:#544399"/>
			<stop  offset="1" style="stop-color:#825FB0"/>
		</linearGradient>
		<path class="st3" d="M288.7,433.1c46-18.6,74.3-53.6,78.7-104c1.5-19-5.7-44.7-16.8-72.3c-0.6-1.6-1.3-3.2-2-4.8
			c-2.9-7.1-6.1-14.3-9.5-21.5c-7.9-16.9-16.6-34-25.2-50.2l-3.7,30.8L298.4,184c0,9-10,36.4-12.2,42.3c-0.3,0.7-0.4,1.1-0.4,1.1
			c0-0.2,0-0.4,0-0.6c-0.2-19.9-7.4-34.3-7.4-34.3l-6.6,21.4c-0.5,0.7-1,1.2-1.5,1.8c-0.5,0.5-1,1-1.5,1.4c-0.9,0.8-1.8,1.4-2.4,1.9
			c-0.3,0.2-0.6,0.4-0.8,0.5c-0.3,0.2-0.5,0.3-0.5,0.3c0-10.9-5.2-31.8-5.2-31.8c0.3,1.7,0.4,3.5,0.4,5.3c0,0.4,0,0.9,0,1.3
			c0,0.9-0.1,1.8-0.1,2.6c-0.3,3.5-1,7-2,10.4c-0.3,0.8-0.5,1.7-0.8,2.5c-0.3,0.8-0.6,1.6-0.9,2.4c-0.8,2-1.7,4-2.6,5.8
			c-0.4,0.7-0.8,1.5-1.1,2.2c-4.3,7.9-9.3,14-12.3,16.5c-0.3,0.2-0.5,0.4-0.8,0.6c-0.7,0.5-1.2,0.7-1.5,0.6
			c-0.2-0.1-0.3-0.3-0.3-0.6c0-0.1,0-0.2,0-0.3c0-0.1,0-0.2,0.1-0.4c0.1-0.3,0.2-0.6,0.3-0.9c0.3-0.8,0.6-1.9,0.8-3
			c0.2-0.9,0.3-1.9,0.4-3c0.1-0.5,0.1-1.1,0.1-1.7c0.2-3.1,0.2-6.7,0-10.5c-0.1-1-0.1-2-0.2-3.1c-0.1-1-0.2-2.1-0.2-3.1
			c-0.2-2.8-0.5-5.5-0.8-8c0-0.3-0.1-0.6-0.1-1c-1-8.5-2.2-15.1-2.2-14.8c0,8.5-8.9,21-14.1,27.2c-0.1-0.5-0.2-1-0.3-1.6
			c3.9,19.2,5.3,42.8-4.9,62.1c-3.7,7-12.6,26.4-42.3,40.4c-10.4,4.7-23,7-34.9,7c-33.4,0-66.1-14.7-70.6-17.1
			c11.8,27.8,28.3,52,47.4,71.9c38.6,40.2,87.9,63.1,131.6,63.1C262.7,440.9,276.1,438.6,288.7,433.1z"/>
	</g>
	<path class="st1" d="M274.2,210.1c-0.1,0.1-0.1,0.2-0.2,0.4L274.2,210.1z"/>
	<path class="st4" d="M285.7,227.4c0,0,0.2-0.4,0.4-1.1c-0.1,0.2-0.3,0.3-0.4,0.5C285.7,227,285.7,227.2,285.7,227.4z"/>
	<path class="st4" d="M217.6,197.6c1.2,4.2,2.4,8.9,3.5,13.9c-0.4-1.9-0.8-3.7-1.3-5.5c-0.1-0.6-0.3-1.2-0.4-1.8
		C218.8,201.9,218.2,199.7,217.6,197.6z"/>
	<path class="st4" d="M240.3,237c-0.3,0.2-0.5,0.4-0.8,0.6C239.8,237.4,240,237.2,240.3,237z"/>
	<path class="st4" d="M260.2,193.1c0-1.8-0.2-3.5-0.4-5.3v0C260,189.6,260.2,191.4,260.2,193.1z"/>
	<path class="st4" d="M237.8,237.5c0,0.4,0.1,0.6,0.3,0.6C237.8,238.1,237.7,237.9,237.8,237.5z"/>
	<path class="st4" d="M217.6,197.6C217.6,197.6,217.6,197.6,217.6,197.6c0.6,2.1,1.2,4.3,1.8,6.6
		C218.8,201.9,218.2,199.7,217.6,197.6z"/>
	<g>
		<path class="st4" d="M415.7,12.4c-0.4-0.7-1.6-1-3.5-1c-3.3,0.1-8.3,1.2-14.4,3.1c-31.5,9.7-92.6,41.7-104.5,87.5c0,0,0,0,0,0
			c0.7,21.9,5.4,34.1,24.4,70.3c13.3,25,26.7,51.4,37.2,76.3c5.7-11.4,13.2-27.3,14.1-34.4l8.9,32.6l8.7-34.1
			c-0.7-1.8-1.4-3.6-2-5.4c-17.8-48.1-20.8-63.6-17.1-95.5c3-23.3,14.9-54.3,33.4-80.7C410.5,17.1,417.2,14.8,415.7,12.4z"/>
		<path class="st4" d="M312,176.8c0.1,0.2,0.2,0.3,0.3,0.5c-0.2-0.3-0.3-0.6-0.5-0.9C311.9,176.5,311.9,176.6,312,176.8z"/>
		<path class="st4" d="M312.3,177.2c-0.1-0.2-0.2-0.3-0.3-0.5c-0.1-0.1-0.1-0.3-0.2-0.4C312,176.7,312.1,177,312.3,177.2
			C312.3,177.2,312.3,177.2,312.3,177.2c-0.2-0.3-0.4-0.7-0.5-1c0,0,0,0,0,0c0,0,0,0,0,0c-11.7-21.6-18.4-35.3-22-47.9c0,0,0,0,0,0
			c-0.2-0.6-0.4-1.3-0.5-1.9c0,0,0,0,0,0c-2.6-9.8-3.4-19-3.4-31c0-1,0-2,0.1-3c0.2-7,1.2-14.8,2.8-23c0,0,0,0.1,0,0.1c0,0,0,0,0,0
			c0,0,0-0.1,0-0.1c3.1-15.4,8.9-32.3,17.2-47.7c0,0,0,0,0,0c6.7-13.2,11.9-16.3,10.4-17.9c0,0,0,0,0,0
			c-4.1-4.8-58.2,22.4-83.3,60.8c0,0,0,0,0,0c-7.1,10.8-11.8,22.5-12.5,34.7c-0.2,1.9-0.2,4-0.2,6.1c0,5.2,0.4,10.6,0.4,13.5
			c0,0.7-0.1,1.2-0.2,1.3c-1.5,0-3-52-8.9-52.8c-4.8,0-16.6,39.2-8.4,80.7c0.7,3.4,1.5,6.8,2.4,10.1c3,10.9,3.7,10.1,5.9,19.4
			c0.5,2.6,3.2,9.8,6.1,19.8c0.6,2.1,1.2,4.3,1.8,6.6c0.1,0.6,0.3,1.2,0.4,1.8c0.4,1.8,0.9,3.6,1.3,5.5c0.3,1.2,0.5,2.4,0.8,3.6
			c5.2-6.2,14.1-18.6,14.1-27.2c0-0.3,1.2,6.3,2.2,14.8c0,0.3,0.1,0.6,0.1,1c0.3,2.6,0.6,5.3,0.8,8c0.1,1,0.2,2.1,0.2,3.1
			c0.1,1,0.1,2.1,0.2,3.1c0.2,3.7,0.2,7.3,0,10.5c0,0.6-0.1,1.1-0.1,1.7c-0.1,1.1-0.2,2.1-0.4,3c-0.2,1.1-0.5,2.2-0.8,3
			c-0.1,0.3-0.2,0.6-0.3,0.9c0,0.1-0.1,0.2-0.1,0.4c0,0.1,0,0.2,0,0.3c0,0.4,0.1,0.6,0.3,0.6c0.3,0.1,0.8-0.1,1.5-0.6
			c0.2-0.2,0.5-0.4,0.8-0.6c3-2.5,8-8.6,12.3-16.5c0.4-0.7,0.8-1.5,1.1-2.2c0.9-1.9,1.8-3.8,2.6-5.8c0.3-0.8,0.6-1.6,0.9-2.4
			c0.3-0.8,0.6-1.7,0.8-2.5c1-3.4,1.7-6.8,2-10.4c0.1-0.9,0.1-1.8,0.1-2.6c0-0.4,0-0.9,0-1.3c0-1.8-0.2-3.5-0.4-5.3
			c0,0,5.2,21,5.2,31.8c0,0,0.2-0.1,0.5-0.3c0.2-0.1,0.5-0.3,0.8-0.5c0.6-0.4,1.5-1,2.4-1.9c0.5-0.4,1-0.9,1.5-1.4
			c0.5-0.5,1-1.1,1.5-1.8c0.5-0.7,1-1.4,1.5-2.1l1.8-3.6c2.3-4.1,3.3-7.9,3.3-15.6c0,0,7.1,15.2,7.3,35.1c0.1-0.2,0.4-1.1,0.6-1.3
			c2.2-5.9,12.2-33.3,12.2-42.3l11.9,27.2l3.7-30.8l0-0.2C313.4,178.9,312.8,178.2,312.3,177.2C312.3,177.2,312.3,177.2,312.3,177.2
			z"/>
	</g>
</g>
</svg>
