<?xml version="1.0" encoding="utf-8"?>
<!-- Generator: Adobe Illustrator 22.1.0, SVG Export Plug-In . SVG Version: 6.00 Build 0)  -->
<svg version="1.1" id="Layer_1" xmlns="http://www.w3.org/2000/svg" xmlns:xlink="http://www.w3.org/1999/xlink" x="0px" y="0px"
	 viewBox="0 0 512 512" style="enable-background:new 0 0 512 512;" xml:space="preserve">
<style type="text/css">
	.st0{fill:url(#SVGID_1_);}
</style>
<g>
	<g>
		<linearGradient id="SVGID_1_" gradientUnits="userSpaceOnUse" x1="-2.227947e-05" y1="256.0005" x2="511.999" y2="256.0005">
			<stop  offset="0" style="stop-color:#A071BF"/>
			<stop  offset="1" style="stop-color:#493C94"/>
		</linearGradient>
		<path class="st0" d="M511.6,126.6c0-14.4-11.8-26.2-26.2-26.2c0,0,0,0,0,0l-459.2,0.6c-7,0-13.6,2.7-18.5,7.7
			c-4.9,5-7.7,11.6-7.7,18.6l0.4,258c0,7,2.7,13.6,7.7,18.5c5,4.9,11.5,7.7,18.5,7.7c0,0,0,0,0,0l459.2-0.6
			c14.5,0,26.2-11.8,26.2-26.3L511.6,126.6z M456.6,126.7L256,266.2L55,127.3L456.6,126.7z M340.8,292.5l119,92.3l-408,0.6
			l119.7-92.8c5.7-4.4,6.8-12.7,2.3-18.4c-4.4-5.7-12.7-6.8-18.4-2.3l-128.9,100l-0.3-232.5l222.3,153.7c2.2,1.6,4.8,2.3,7.5,2.3
			c2.6,0,5.2-0.8,7.5-2.3l221.9-154.3l0.3,233.1l-128.9-99.9c-5.7-4.4-14-3.4-18.4,2.3C334.1,279.8,335.1,288,340.8,292.5z"/>
	</g>
</g>
</svg>
