<svg id="Layer_1" data-name="Layer 1" xmlns="http://www.w3.org/2000/svg" xmlns:xlink="http://www.w3.org/1999/xlink" viewBox="0 0 360 360"><defs><style>.cls-1{fill:url(#linear-gradient);}.cls-2{fill:#fff;}</style><linearGradient id="linear-gradient" x1="11.6" y1="180" x2="348.4" y2="180" gradientUnits="userSpaceOnUse"><stop offset="0" stop-color="#a32597"/><stop offset="1" stop-color="#9472ff"/></linearGradient></defs><title>icons</title><circle class="cls-1" cx="180" cy="180" r="168.4"/><path class="cls-2" d="M224,170.5H191.4a1.9,1.9,0,0,1-1.9-1.9V136a9.6,9.6,0,0,0-19.2,0v32.6a1.9,1.9,0,0,1-1.9,1.9H135.8a9.6,9.6,0,0,0,0,19.2h32.6a1.9,1.9,0,0,1,1.9,1.9v32.6a9.6,9.6,0,0,0,19.2,0V191.6a1.9,1.9,0,0,1,1.9-1.9H224A9.6,9.6,0,0,0,224,170.5Z"/></svg>