<?xml version="1.0" encoding="utf-8"?>
<!-- Generator: Adobe Illustrator 22.1.0, SVG Export Plug-In . SVG Version: 6.00 Build 0)  -->
<svg version="1.1" id="Layer_1" xmlns="http://www.w3.org/2000/svg" xmlns:xlink="http://www.w3.org/1999/xlink" x="0px" y="0px"
	 viewBox="0 0 360 360" style="enable-background:new 0 0 360 360;" xml:space="preserve">
<style type="text/css">
	.st0{fill:#F71919;}
	.st1{fill:#FFFFFF;}
</style>
<circle class="st0" cx="180.4" cy="177.2" r="168.4"/>
<path class="st1" d="M220.5,168.6h-29.7c-1,0-1.7-0.8-1.7-1.7v-29.7c0-4.8-3.9-8.7-8.7-8.7s-8.7,3.9-8.7,8.7v29.6
	c0,1-0.8,1.7-1.7,1.7h-29.7c-4.8,0-8.7,3.9-8.7,8.7s3.9,8.7,8.7,8.7H170c1,0,1.7,0.8,1.7,1.7v29.7c0,4.8,3.9,8.7,8.7,8.7
	s8.7-3.9,8.7-8.7v-29.5c0-1,0.8-1.7,1.7-1.7h29.7c4.8,0,8.7-3.9,8.7-8.7C229.2,172.5,225.3,168.6,220.5,168.6z"/>
</svg>
