<svg id="Layer_1" data-name="Layer 1" xmlns="http://www.w3.org/2000/svg" viewBox="0 0 342 342"><defs><style>.cls-1{fill:#fff;}.cls-2{fill:#8c8c8c;}</style></defs><title>heart_grey_heart</title><g id="Capa_1" data-name="Capa 1"><circle class="cls-1" cx="171" cy="171" r="171"/><path class="cls-2" d="M249.24,151.54C247,126.32,229.09,108,206.75,108a42.23,42.23,0,0,0-36.18,20.85C163,115.86,149.9,108,135.25,108c-22.34,0-40.2,18.3-42.49,43.53-.18,1.11-.92,7,1.34,16.54a71,71,0,0,0,21.73,36.27L170.53,254l55.64-49.64a71,71,0,0,0,21.73-36.27C250.16,158.52,249.42,152.66,249.24,151.54Z"/></g></svg>