<?xml version="1.0"?>
<svg xmlns="http://www.w3.org/2000/svg" id="line" width="512" height="512" viewBox="0 0 64 64"><path d="M39.548,62.892c.009,0,.019,0,.028.006a.932.932,0,0,0,.848,0c.009,0,.019,0,.028-.006C59.2,53.389,62,43.217,62,38c0-7.29-5.052-13-11.5-13A13.977,13.977,0,0,0,40,29.787,13.977,13.977,0,0,0,29.5,25C23.052,25,18,30.71,18,38,18,43.217,20.8,53.389,39.548,62.892ZM41,33.526l.67-1.026A10.987,10.987,0,0,1,50.5,28c4.846,0,8.5,4.3,8.5,10,0,4.34-2.39,12.758-18,21.213ZM50.5,32a1,1,0,0,1,0-2c3.767,0,6.5,3.364,6.5,8a1,1,0,0,1-2,0C55,34.523,53.107,32,50.5,32Z" style="fill:#c4a2fc"/><path d="M41,7a12.238,12.238,0,0,0-9,3.93A12.238,12.238,0,0,0,23,7a9.883,9.883,0,0,0-9.284,6.873A10.446,10.446,0,0,0,9.5,13C4.733,13,1,16.953,1,22c0,3.562,2.023,10.494,15.572,16.9a1.006,1.006,0,0,0,.856,0,47.175,47.175,0,0,0,7.1-4.077A58.557,58.557,0,0,0,31.558,38.9a.992.992,0,0,0,.884,0C48.589,30.939,51,22.389,51,18,51,11.832,46.607,7,41,7ZM17,36.892C4.832,31.018,3,25.053,3,22c0-3.991,2.794-7,6.5-7a8.55,8.55,0,0,1,6.683,3.176,1,1,0,0,0,1.633,0A8.447,8.447,0,0,1,24.5,15c3.706,0,6.5,3.009,6.5,7C31,28.754,23.09,33.952,17,36.892Zm15-.009a57.051,57.051,0,0,1-5.783-3.331C31.937,28.92,33,24.577,33,22c0-5.047-3.733-9-8.5-9A10.531,10.531,0,0,0,17,16.085a10.862,10.862,0,0,0-1.51-1.237A7.859,7.859,0,0,1,23,9a10.215,10.215,0,0,1,8.17,4.058,1,1,0,0,0,1.658,0A10.215,10.215,0,0,1,41,9c4.561,0,8,3.869,8,9C49,21.885,46.777,29.473,32,36.883ZM45,18a1,1,0,0,1-2,0c0-1.246-.62-3-2-3a1,1,0,0,1,0-2C43.6,13,45,15.576,45,18ZM27,22a1,1,0,0,1-2,0c0-.01-.037-1-.5-1a1,1,0,0,1,0-2C26.142,19,27,20.509,27,22Z" style="fill:#151a6a"/></svg>
