<svg id="line" height="512" viewBox="0 0 64 64" width="512" xmlns="http://www.w3.org/2000/svg"><path d="m24.327 51.1c-12.064-13.1-4.758-27 5.2-27a13.973 13.973 0 0 1 10.5 4.787 13.973 13.973 0 0 1 10.503-4.787c10.134 0 17.1 14.078 5.2 27h-14.7v-6.169c3.655.449 8.713-5.682 6.216-8.179-1.788-1.783-5.468.326-7.216 3.012-1.595-2.452-5.3-4.932-7.216-3.012-2.5 2.5 2.571 8.626 6.216 8.179v6.169zm16.155 10.888a57.618 57.618 0 0 0 13.259-8.888h-27.422a57.618 57.618 0 0 0 13.259 8.892 1 1 0 0 0 .904-.004z" fill="#c4a2fc"/><path d="m5 51h36a1 1 0 0 0 0-2h-11.08a7 7 0 0 0 -5.92-5.92v-4.319c2.665 1.016 6.305-1.285 8.39-3.371 3.462-3.462 4.615-7.53 2.682-9.462-2.822-2.828-8.543 1.095-11.072 4.559v-5.857c12.157-5.816 14-12.062 14-15.3a8.085 8.085 0 0 0 -8-8.33 9.975 9.975 0 0 0 -7 2.807 9.975 9.975 0 0 0 -7-2.807 8.085 8.085 0 0 0 -8 8.333c0 3.235 1.843 9.481 14 15.3v5.857c-2.535-3.472-8.265-7.367-11.072-4.559-1.933 1.932-.78 6 2.682 9.462 2.069 2.07 5.726 4.386 8.39 3.371v4.316a7 7 0 0 0 -5.92 5.92h-11.08a1 1 0 0 0 0 2zm22.024-20.976c1.609-1.607 5.317-4 6.634-2.682.933.932-.016 3.967-2.682 6.634-2.722 2.721-5.735 3.582-6.634 2.682-1.126-1.126.558-4.508 2.682-6.634zm-17.024-20.691a6.038 6.038 0 0 1 6-6.333 7.858 7.858 0 0 1 6.188 2.884 1.037 1.037 0 0 0 1.626 0 7.908 7.908 0 0 1 6.186-2.884 6.038 6.038 0 0 1 6 6.333c0 2.776-1.7 8.2-13 13.562-11.3-5.362-13-10.786-13-13.562zm11.658 27.325c-.89.894-3.9.054-6.634-2.682-2.666-2.667-3.615-5.7-2.682-6.634.894-.894 3.9-.048 6.634 2.682 1.897 1.899 3.831 5.485 2.682 6.634zm1.342 8.342a5.009 5.009 0 0 1 4.9 4h-9.8a5.009 5.009 0 0 1 4.9-4zm7-39.5a3.571 3.571 0 0 1 3.5 3.833 1 1 0 0 1 -2 0c0-.187-.042-1.833-1.5-1.833a1 1 0 0 1 0-2z" fill="#151a6a"/></svg>