<svg id="Layer_1" data-name="Layer 1" xmlns="http://www.w3.org/2000/svg" viewBox="0 0 158.8 92.31"><defs><style>.cls-1{fill:#fff;}</style></defs><title>Logo_textunder_white</title><path class="cls-1" d="M30.85,19.28c-1.8,1.1-2.4,3.4-2.8,5.4-.5,2.7-.9,5.4-1.4,8.1-1.4,8.6-2.9,17.1-4.1,25.7-.5,3.2.2,6.4,4,6.5a4.3,4.3,0,0,0,3.8-1.7c1.4-2,1.5-4.9,1.7-7.2.4-3.7,1-7.5,1.5-11.2,1.1-7.4,2.4-14.7,3.9-22,.5-2.3-1.3-3.8-3.3-4.1A4.59,4.59,0,0,0,30.85,19.28Z" transform="translate(-0.55 -2.88)"/><path class="cls-1" d="M40.75,76.68Z" transform="translate(-0.55 -2.88)"/><path class="cls-1" d="M40.75,76.68h-1a.37.37,0,0,0-.3.1.1.1,0,0,0-.1.1c0,.1,0,.1-.1.2l-3.2,12.2-3.3-12.1a.35.35,0,0,0-.1-.2c0-.1-.1-.1-.2-.1s-.2-.1-.3-.1h-1a.37.37,0,0,0-.3.1c-.1,0-.1.1-.2.1s-.1.1-.1.2l-3.2,12L24.05,77c0-.1,0-.1-.1-.2a.1.1,0,0,0-.1-.1c-.1,0-.2-.1-.3-.1h-1.1a.37.37,0,0,0-.3.1c-.1.1-.1.1-.1.2a.76.76,0,0,0,.1.4L26,90.68c0,.1.1.2.1.3s.1.1.2.1.2.1.4.1h1.2c.2,0,.3,0,.4-.1a.35.35,0,0,0,.2-.1c.1-.1.1-.1.1-.3l2.8-11,3,11c0,.1.1.2.1.3s.1.1.2.1.2.1.4.1h1.2c.2,0,.3,0,.4-.1a.35.35,0,0,0,.2-.1c.1-.1.1-.1.1-.3l3.8-13.4c0-.2.1-.3.1-.4S40.85,76.68,40.75,76.68Z" transform="translate(-0.55 -2.88)"/><path class="cls-1" d="M49.05,80.68a.35.35,0,0,0-.2-.1c-.1,0-.2-.1-.4-.1s-.3-.1-.4-.1h-.3a1.27,1.27,0,0,0-.6.1l-.6.3a3.19,3.19,0,0,0-.7.6,8.74,8.74,0,0,0-.8,1v-1.7a.1.1,0,0,0-.1-.1.44.44,0,0,0-.3-.1h-.8a.37.37,0,0,0-.3.1l-.1.1v10.5a.1.1,0,0,0,.1.1,1,1,0,0,0,.3.1h.9a.37.37,0,0,0,.3-.1l.1-.1v-6.8c.3-.4.5-.8.7-1a4.35,4.35,0,0,1,.6-.7,2.09,2.09,0,0,1,.6-.4,1.09,1.09,0,0,1,.5-.1H48c.1,0,.3.1.4.1s.2.1.3.1a.35.35,0,0,1,.2.1c.1,0,.1,0,.1-.1l.1-.1v-1.1a1,1,0,0,1,.1-.3v-.1A.1.1,0,0,0,49.05,80.68Z" transform="translate(-0.55 -2.88)"/><path class="cls-1" d="M53.15,80.48h-.9a.37.37,0,0,0-.3.1.1.1,0,0,0-.1.1v10.4a.1.1,0,0,0,.1.1,1,1,0,0,0,.3.1h.9a.37.37,0,0,0,.3-.1l.1-.1V80.68l-.1-.1C53.35,80.58,53.25,80.48,53.15,80.48Z" transform="translate(-0.55 -2.88)"/><path class="cls-1" d="M52.65,76.28a2,2,0,0,0-.9.2c-.2.2-.2.5-.2.9a2,2,0,0,0,.2.9c.2.2.5.2.9.2a2,2,0,0,0,.9-.2c.2-.2.2-.5.2-.9a2,2,0,0,0-.2-.9A1.44,1.44,0,0,0,52.65,76.28Z" transform="translate(-0.55 -2.88)"/><path class="cls-1" d="M62.65,80.68a.1.1,0,0,0-.1-.1h-2.8v-2.5l-.1-.1a1,1,0,0,0-.3-.1h-.9a.37.37,0,0,0-.3.1.1.1,0,0,0-.1.1v2.5h-1.6a.1.1,0,0,0-.1.1c0,.1-.1.1-.1.2v.4c0,.3,0,.5.1.6s.2.2.3.2h1.4V88a6.05,6.05,0,0,0,.2,1.5,3.7,3.7,0,0,0,.5,1.1,1.46,1.46,0,0,0,.9.6,5.07,5.07,0,0,0,1.3.2h.5c.2,0,.3-.1.5-.1s.3-.1.4-.1.2-.1.3-.2a.37.37,0,0,0,.1-.3v-.8c0-.1,0-.2-.1-.2s0-.1-.1-.1h-.1c-.1,0-.1,0-.2.1s-.2.1-.3.1-.2.1-.4.1-.3.1-.5.1a1.29,1.29,0,0,1-1.1-.5,3.51,3.51,0,0,1-.3-1.6v-5.6h2.7v-.2c.1,0,.2-.1.3-.2s.1-.3.1-.6v-.4C62.75,80.78,62.75,80.68,62.65,80.68Z" transform="translate(-0.55 -2.88)"/><path class="cls-1" d="M73,81.78a3.59,3.59,0,0,0-1.4-1,4.21,4.21,0,0,0-2-.4,4.48,4.48,0,0,0-2,.4,4.18,4.18,0,0,0-1.5,1.1,7.68,7.68,0,0,0-1,1.8,5.83,5.83,0,0,0-.3,2.3,8.75,8.75,0,0,0,.3,2.4,3.23,3.23,0,0,0,1,1.7,3.36,3.36,0,0,0,1.6,1,7.32,7.32,0,0,0,2.2.3,6.6,6.6,0,0,0,1.4-.1,5.16,5.16,0,0,1,1.1-.2,6.89,6.89,0,0,0,.8-.3c.2-.1.3-.2.4-.2a.1.1,0,0,0,.1-.1.31.31,0,0,1,.1-.2v-.8c0-.1,0-.2-.1-.2a.1.1,0,0,1-.1-.1h-.1a.76.76,0,0,0-.4.1,4.88,4.88,0,0,1-.7.3c-.3.1-.6.2-1,.3a5.28,5.28,0,0,1-1.3.1,3.34,3.34,0,0,1-1.5-.3,2.55,2.55,0,0,1-1-.7,2.28,2.28,0,0,1-.6-1.2,7.72,7.72,0,0,1-.2-1.5h6.6a.76.76,0,0,0,.5-.2.85.85,0,0,0,.2-.6v-.3a5.82,5.82,0,0,0-.3-1.9A2.75,2.75,0,0,0,73,81.78Zm-.9,3H66.66a5.4,5.4,0,0,1,.19-1.1,3.13,3.13,0,0,1,.5-1,2.18,2.18,0,0,1,.9-.7,2.13,2.13,0,0,1,1.2-.3,2.48,2.48,0,0,1,2,.8A2.88,2.88,0,0,1,72.05,84.78Z" transform="translate(-0.55 -2.88)"/><path class="cls-1" d="M91.05,80.58a.31.31,0,0,1-.2-.1h-1a.37.37,0,0,0-.3.1.77.77,0,0,0-.2.3L86.55,89l-2.9-8.1a.35.35,0,0,0-.1-.2c0-.1-.1-.1-.2-.1s-.2-.1-.3-.1h-1c-.1,0-.2.1-.3.1s-.1.1-.1.2a.76.76,0,0,0,.1.4l3.6,9.6c0,.1.1.1.1.2s.1.1.2.1l-1.4,3.5c0,.1-.1.2-.1.3s0,.1.1.2a.37.37,0,0,0,.3.1h.5c.4,0,.7,0,.8-.1s.3-.2.3-.3l1.3-3.7,3.6-10c0-.1.1-.2.1-.3S91.15,80.58,91.05,80.58Z" transform="translate(-0.55 -2.88)"/><path class="cls-1" d="M101.75,81.78a4.18,4.18,0,0,0-1.5-1.1,6.65,6.65,0,0,0-2.2-.4,5.56,5.56,0,0,0-2.3.4,4.81,4.81,0,0,0-1.6,1.2,5.24,5.24,0,0,0-1,1.8,9,9,0,0,0,0,4.6,4.61,4.61,0,0,0,.9,1.7,4.18,4.18,0,0,0,1.5,1.1,6.65,6.65,0,0,0,2.2.4,4.61,4.61,0,0,0,3.8-1.6,5.24,5.24,0,0,0,1-1.8,8,8,0,0,0,.3-2.3,8.52,8.52,0,0,0-.3-2.3A3.37,3.37,0,0,0,101.75,81.78Zm-.9,5.7a3.1,3.1,0,0,1-.6,1.3,2.54,2.54,0,0,1-1,.8,3.19,3.19,0,0,1-1.4.3,3.34,3.34,0,0,1-1.5-.3,2.84,2.84,0,0,1-1-.9,5,5,0,0,1-.5-1.3,6.5,6.5,0,0,1,0-3.2,3.1,3.1,0,0,1,.6-1.3,2.54,2.54,0,0,1,1-.8,3.19,3.19,0,0,1,1.4-.3,3.34,3.34,0,0,1,1.5.3,2.84,2.84,0,0,1,1,.9,5,5,0,0,1,.5,1.3,7.72,7.72,0,0,1,.2,1.5A7.93,7.93,0,0,1,100.85,87.48Z" transform="translate(-0.55 -2.88)"/><path class="cls-1" d="M114.55,80.58c-.1,0-.2-.1-.3-.1h-.9a.37.37,0,0,0-.3.1c-.1,0-.1.1-.2.1V88a6.4,6.4,0,0,1-1.5,1.4,2.65,2.65,0,0,1-1.4.5,2,2,0,0,1-.9-.2,1.34,1.34,0,0,1-.7-.6,3.55,3.55,0,0,1-.4-.9,5.72,5.72,0,0,1-.1-1.4v-6.1a.35.35,0,0,0-.2-.1c-.1,0-.2-.1-.3-.1h-.8a.37.37,0,0,0-.3.1c-.1,0-.1.1-.2.1V87a10.07,10.07,0,0,0,.2,1.9,2.62,2.62,0,0,0,.6,1.3,4.81,4.81,0,0,0,1.1.9,4.31,4.31,0,0,0,1.7.3,3.53,3.53,0,0,0,1.7-.4,7,7,0,0,0,1.7-1.4v1.5a.1.1,0,0,0,.1.1.44.44,0,0,0,.3.1h.8a.37.37,0,0,0,.3-.1l.1-.1V80.78c0-.1,0-.1-.1-.2C114.65,80.68,114.65,80.58,114.55,80.58Z" transform="translate(-0.55 -2.88)"/><path class="cls-1" d="M124.45,80.68a.35.35,0,0,0-.2-.1c-.1,0-.2-.1-.4-.1s-.3-.1-.4-.1h-.3a1.27,1.27,0,0,0-.6.1l-.6.3a3.19,3.19,0,0,0-.7.6,8.74,8.74,0,0,0-.8,1v-1.7a.1.1,0,0,0-.1-.1.44.44,0,0,0-.3-.1h-.8a.37.37,0,0,0-.3.1l-.1.1v10.5a.1.1,0,0,0,.1.1,1,1,0,0,0,.3.1h.9a.37.37,0,0,0,.3-.1l.1-.1v-6.8c.3-.4.5-.8.7-1a4.35,4.35,0,0,1,.6-.7,2.09,2.09,0,0,1,.6-.4,1.09,1.09,0,0,1,.5-.1h.4c.1,0,.3.1.4.1s.2.1.3.1a.35.35,0,0,1,.2.1c.1,0,.1,0,.1-.1l.1-.1v-1.1a1,1,0,0,1,.1-.3v-.1A.1.1,0,0,0,124.45,80.68Z" transform="translate(-0.55 -2.88)"/><path class="cls-1" d="M132.25,86.28a5.55,5.55,0,0,0-.8-.6,3.55,3.55,0,0,0-.9-.4c-.3-.1-.6-.3-.9-.4a5.94,5.94,0,0,1-.8-.4,2.65,2.65,0,0,1-.6-.5.84.84,0,0,1-.2-.7,1.27,1.27,0,0,1,.1-.6c.1-.2.2-.3.3-.5s.3-.2.6-.3a2,2,0,0,1,.8-.1,2.22,2.22,0,0,1,.9.1,4.88,4.88,0,0,1,.7.3,2.19,2.19,0,0,1,.5.3.37.37,0,0,0,.3.1h.1l.1-.1c0-.1,0-.1.1-.2v-.8c0-.1,0-.1-.1-.2l-.2-.2c-.1-.1-.2-.1-.3-.2a1.07,1.07,0,0,0-.6-.2c-.2-.1-.5-.1-.7-.2a2,2,0,0,0-.8-.1,7,7,0,0,0-1.6.2,4.73,4.73,0,0,0-1.2.7,2.29,2.29,0,0,0-.7,1,2.15,2.15,0,0,0-.2,1.1,5,5,0,0,0,.2,1.2,1.56,1.56,0,0,0,.6.8c.3.2.5.4.8.6a3.55,3.55,0,0,0,.9.4,3.55,3.55,0,0,1,.9.4,2,2,0,0,1,.8.4,2.65,2.65,0,0,1,.6.5,1.45,1.45,0,0,1,.2.7.84.84,0,0,1-.2.7,1,1,0,0,1-.4.5,4.88,4.88,0,0,1-.7.3,2.48,2.48,0,0,1-.9.1,3.59,3.59,0,0,1-1.1-.2,6.89,6.89,0,0,1-.8-.3l-.6-.3c-.2-.1-.3-.2-.4-.2H126l-.1.1c0,.1,0,.1-.1.2v.4a.75.75,0,0,0,.1.5c.1.1.1.2.2.3a1.38,1.38,0,0,0,.4.3,4.88,4.88,0,0,0,.7.3,2.39,2.39,0,0,0,.9.2c.4,0,.7.1,1,.1a7.77,7.77,0,0,0,1.6-.2,5.17,5.17,0,0,0,1.3-.6,2.54,2.54,0,0,0,.8-1,3.19,3.19,0,0,0,.3-1.4,3.59,3.59,0,0,0-.2-1.1A1.56,1.56,0,0,0,132.25,86.28Z" transform="translate(-0.55 -2.88)"/><path class="cls-1" d="M143.75,81.78a3.59,3.59,0,0,0-1.4-1,4.21,4.21,0,0,0-2-.4,4.48,4.48,0,0,0-2,.4,4.18,4.18,0,0,0-1.5,1.1,7.68,7.68,0,0,0-1,1.8,5.83,5.83,0,0,0-.3,2.3,8.75,8.75,0,0,0,.3,2.4,3.23,3.23,0,0,0,1,1.7,3.36,3.36,0,0,0,1.6,1,7.32,7.32,0,0,0,2.2.3,6.6,6.6,0,0,0,1.4-.1,5.16,5.16,0,0,1,1.1-.2,6.89,6.89,0,0,0,.8-.3c.2-.1.3-.2.4-.2a.1.1,0,0,0,.1-.1.31.31,0,0,1,.1-.2v-.8c0-.1,0-.2-.1-.2a.1.1,0,0,1-.1-.1h-.1a.76.76,0,0,0-.4.1,4.88,4.88,0,0,1-.7.3c-.3.1-.6.2-1,.3a5.28,5.28,0,0,1-1.3.1,3.34,3.34,0,0,1-1.5-.3,2.55,2.55,0,0,1-1-.7,2.28,2.28,0,0,1-.6-1.2,7.72,7.72,0,0,1-.2-1.5h6.6a.76.76,0,0,0,.5-.2.85.85,0,0,0,.2-.6v-.3a5.82,5.82,0,0,0-.3-1.9A3.61,3.61,0,0,0,143.75,81.78Zm-.9,3h-5.39a5.4,5.4,0,0,1,.19-1.1,3.13,3.13,0,0,1,.5-1,2.18,2.18,0,0,1,.9-.7,2.13,2.13,0,0,1,1.2-.3,2.48,2.48,0,0,1,2,.8A2.88,2.88,0,0,1,142.85,84.78Z" transform="translate(-0.55 -2.88)"/><path class="cls-1" d="M149.45,75.58h-.9a.37.37,0,0,0-.3.1.1.1,0,0,0-.1.1v15.4a.1.1,0,0,0,.1.1,1,1,0,0,0,.3.1h.9a.37.37,0,0,0,.3-.1l.1-.1V75.78l-.1-.1C149.65,75.68,149.55,75.58,149.45,75.58Z" transform="translate(-0.55 -2.88)"/><path class="cls-1" d="M159.15,75.88c0-.1-.1-.1-.3-.2a4.17,4.17,0,0,0-.6-.2c-.2,0-.5-.1-.8-.1a5.21,5.21,0,0,0-1.4.2,3.59,3.59,0,0,0-1,.7,2.28,2.28,0,0,0-.6,1.2,9,9,0,0,0-.2,1.8v1h-1.6a.1.1,0,0,0-.1.1.35.35,0,0,0-.1.2V81c0,.3,0,.5.1.6s.1.2.3.2h1.4v9.1a.35.35,0,0,0,.2.1c.1,0,.2.1.3.1h.8a.37.37,0,0,0,.3-.1c.1-.1.1-.1.2-.1v-9.1h2.3c.1,0,.2-.1.3-.2s.1-.3.1-.6v-.4c0-.1,0-.2-.1-.2a.1.1,0,0,0-.1-.1h-2.5v-1.1a3.75,3.75,0,0,1,.1-1.1c.1-.3.1-.5.3-.7a1,1,0,0,1,.5-.4,1.48,1.48,0,0,1,.7-.1.75.75,0,0,1,.5.1c.2,0,.3.1.4.1s.2.1.3.1.1.1.2.1h.1l.1-.1c0-.1,0-.1.1-.2v-.7c0-.1-.1-.1-.1-.2S159.15,76,159.15,75.88Z" transform="translate(-0.55 -2.88)"/><path class="cls-1" d="M71.45,29.68a5.8,5.8,0,0,0,4,1.2,6.35,6.35,0,0,0,4.4-1.5,5.06,5.06,0,0,0,1.6-4,3.68,3.68,0,0,0-1.5-3.2,5.73,5.73,0,0,0-3.8-1.1,6.26,6.26,0,0,0-4.3,1.5,4.5,4.5,0,0,0-1.7,3.7A3.94,3.94,0,0,0,71.45,29.68Z" transform="translate(-0.55 -2.88)"/><path class="cls-1" d="M158.65,64a5.07,5.07,0,0,0,.7-2.8,4.41,4.41,0,0,0-.7-2.6,2.39,2.39,0,0,0-2.1-1l-15.9.7a20.37,20.37,0,0,1,3.9-5.6,58,58,0,0,1,5.6-5.5,23.58,23.58,0,0,1,5.2-3.5,7.51,7.51,0,0,0,2.9-2.1,4.72,4.72,0,0,0,1-3.2,4.15,4.15,0,0,0-.7-2.7,2,2,0,0,0-1.7-.9,4.94,4.94,0,0,0-1.5.3,4.91,4.91,0,0,1-1.2.3,14.35,14.35,0,0,1-2.4.5c-1.3,0-2.7-.1-4.3-.2a28.61,28.61,0,0,1-3-.3,62.44,62.44,0,0,0-6.9-.4,2.31,2.31,0,0,0-2,1.2,5,5,0,0,0-.7,2.7,4.09,4.09,0,0,0,.7,2.5,2.39,2.39,0,0,0,2.1,1l8.9-.3a40.86,40.86,0,0,0-6.9,5.8,22.53,22.53,0,0,0-2.1,2.4c-2.6,2.3-9,5.2-10.2,6.1a7.18,7.18,0,0,1-4.5,1.5,3.69,3.69,0,0,1-2.7-1.1,7.11,7.11,0,0,1-1.5-3.7A96,96,0,0,0,130,33.48q4.2-9.9,4.2-17.4c0-3.5-.6-6.2-1.7-8a5.3,5.3,0,0,0-4.8-2.8c-3.6,0-6.7,2.4-9.2,7.1a62,62,0,0,0-5.9,16.9,89.24,89.24,0,0,0-2,17.3l-.1.1a135.3,135.3,0,0,1-9.4,9.9,7.18,7.18,0,0,1-4.5,1.5,3.69,3.69,0,0,1-2.7-1.1,7.11,7.11,0,0,1-1.5-3.7,96,96,0,0,0,11.3-19.6q4.2-9.9,4.2-17.4c0-3.5-.6-6.2-1.7-8a5.3,5.3,0,0,0-4.8-2.8c-3.6,0-6.7,2.4-9.2,7.1a62,62,0,0,0-5.9,16.9,92,92,0,0,0-2,17.5c0,1.5.1,3,.2,4.3l-.3.3c-1.9,2.3-3.4,3.9-4.5,5a4.54,4.54,0,0,1-2.8,1.6,1.67,1.67,0,0,1-1.7-1,7.2,7.2,0,0,1-.5-2.9,55.24,55.24,0,0,1,1.5-9.4,49.82,49.82,0,0,0,1.2-7.3c0-1.4-1.1-2.1-3.2-2.1a4.68,4.68,0,0,0-3,.8,5.56,5.56,0,0,0-1.5,2.8,63.33,63.33,0,0,0-1.9,8.3q-.45,2.7-.6,4.8a41.84,41.84,0,0,1-4.3,4.6,4.75,4.75,0,0,1-2.9,1.5,1.43,1.43,0,0,1-1.2-.6,2.46,2.46,0,0,1-.5-1.5,58.8,58.8,0,0,1,1.5-10.1,48.63,48.63,0,0,0,.9-6.3c0-1.5-1-2.2-3.1-2.2a12.65,12.65,0,0,0-2.8.3A4.27,4.27,0,0,0,54,36c-.3-.4-.9-.5-1.9-.5a14.11,14.11,0,0,0-8.2,2.7,19.23,19.23,0,0,0-6.2,7.3,20,20,0,0,0-2.3,9.6,11.29,11.29,0,0,0,2.3,7.4,7.6,7.6,0,0,0,6.2,2.8c3.3,0,6.1-1.8,8.3-5.3a9.91,9.91,0,0,0,2.6,3.9,6.15,6.15,0,0,0,3.8,1.4,9.08,9.08,0,0,0,5.6-2.2,26,26,0,0,0,3.5-3.2,9.48,9.48,0,0,0,1.1,2.5c1.2,1.9,3.2,2.9,6,2.9,3.5,0,7.2-2.4,11.2-7.1l.9,2.1a8.63,8.63,0,0,0,8.2,5,12.68,12.68,0,0,0,7.2-2.1,93.94,93.94,0,0,0,8.8-8.5,18.54,18.54,0,0,0,2,5.6,8.63,8.63,0,0,0,8.2,5,12.68,12.68,0,0,0,7.2-2.1,38.75,38.75,0,0,1,3.5-2c0,.3-.1.6-.1.9,0,2.9,1.1,4.3,3.3,4.3a12.68,12.68,0,0,0,2.8-.6,8.1,8.1,0,0,1,2.4-.6c1.6,0,4.3.1,8.2.3,1,0,2.2.1,3.5.1s2.7.1,4.3.1A4.64,4.64,0,0,0,158.65,64ZM50.75,52.48a11.91,11.91,0,0,1-1.8,4.4,3.3,3.3,0,0,1-2.7,1.6,2.79,2.79,0,0,1-2.2-.9,4.56,4.56,0,0,1-.8-2.9,16.68,16.68,0,0,1,1.3-6.7,13.81,13.81,0,0,1,3.6-5.1,7.85,7.85,0,0,1,4.9-2Zm42.8-22.8a85.1,85.1,0,0,1,3.2-13c1.2-3.5,2.3-5.2,3.3-5.2q1.8,0,1.8,4.8a41.64,41.64,0,0,1-2.6,13.5,83.17,83.17,0,0,1-7.1,14.8A88,88,0,0,1,93.55,29.68Zm26.3,0a85.1,85.1,0,0,1,3.2-13c1.2-3.5,2.3-5.2,3.3-5.2q1.8,0,1.8,4.8a39.44,39.44,0,0,1-2.7,13.5,83.17,83.17,0,0,1-7.1,14.8A79.22,79.22,0,0,1,119.85,29.68Z" transform="translate(-0.55 -2.88)"/><path class="cls-1" d="M10.05,15.78a9.81,9.81,0,0,1,3.1-2.4,13.07,13.07,0,0,1,4.1-1.2,33.35,33.35,0,0,1,10.2.8c7.2,1.5,14.2,4.4,21.6,7.4a47.46,47.46,0,0,0,6.4,2,18.78,18.78,0,0,0,7.5.1,11.44,11.44,0,0,0,4.1-1.8A9.38,9.38,0,0,0,70,17a7.68,7.68,0,0,0-2-9.1,2.86,2.86,0,0,0-3.4-.2,2.9,2.9,0,0,0-.8,4l.4.6a1.52,1.52,0,0,1-.2,1.8,2.91,2.91,0,0,1-2.3,1.2,11.68,11.68,0,0,1-4.3-.6,31.89,31.89,0,0,1-4.8-1.9c-7.1-3.4-14.7-7-23.1-8.8a36.92,36.92,0,0,0-13.4-.8A18.89,18.89,0,0,0,9,5.68,13.86,13.86,0,0,0,5.85,8a19.78,19.78,0,0,0-2.7,3,15.73,15.73,0,0,0-2.6,7.7,14.7,14.7,0,0,0,.6,4.5,9,9,0,0,0,2.6,4,13.3,13.3,0,0,0,1.9,1.4,13.27,13.27,0,0,0,2.1.9,11.44,11.44,0,0,0,4.5.3,9.59,9.59,0,0,0,4.2-1.7,8.07,8.07,0,0,0,2.8-3.8,3,3,0,0,0-1-3.3,2.9,2.9,0,0,0-4.1.6l-.5.2a2.76,2.76,0,0,1-.9.7,3.42,3.42,0,0,1-2.8,0c-.2-.1-.4-.3-.6-.4l-.4-.4a3,3,0,0,1-.4-2.4A6.83,6.83,0,0,1,10.05,15.78Z" transform="translate(-0.55 -2.88)"/></svg>