<svg id="Layer_1" data-name="Layer 1" xmlns="http://www.w3.org/2000/svg" viewBox="0 0 333.7 66.31"><defs><style>.cls-1{fill:#fff;}</style></defs><title>Logo_textnear_white</title><path class="cls-1" d="M36.05,18.68a4.59,4.59,0,0,0-3.3.5c-1.8,1.1-2.4,3.4-2.8,5.4-.5,2.7-.9,5.4-1.4,8.1-1.4,8.6-2.9,17.1-4.1,25.7-.5,3.2.2,6.4,4,6.5a4.3,4.3,0,0,0,3.8-1.7c1.4-2,1.5-4.9,1.7-7.2.4-3.7,1-7.5,1.5-11.2,1.1-7.4,2.4-14.7,3.9-22C39.85,20.48,38.05,19,36.05,18.68Z" transform="translate(-2.45 -2.77)"/><path class="cls-1" d="M73.35,29.58a5.8,5.8,0,0,0,4,1.2,6.35,6.35,0,0,0,4.4-1.5,5.06,5.06,0,0,0,1.6-4,3.68,3.68,0,0,0-1.5-3.2,5.73,5.73,0,0,0-3.8-1.1,6.26,6.26,0,0,0-4.3,1.5,4.5,4.5,0,0,0-1.7,3.7A3.94,3.94,0,0,0,73.35,29.58Z" transform="translate(-2.45 -2.77)"/><path class="cls-1" d="M158.45,57.58l-15.9.7a20.37,20.37,0,0,1,3.9-5.6,58,58,0,0,1,5.6-5.5,23.58,23.58,0,0,1,5.2-3.5,7.51,7.51,0,0,0,2.9-2.1,4.72,4.72,0,0,0,1-3.2,4.15,4.15,0,0,0-.7-2.7,2,2,0,0,0-1.7-.9,4.94,4.94,0,0,0-1.5.3,4.91,4.91,0,0,1-1.2.3,14.35,14.35,0,0,1-2.4.5c-1.3,0-2.7-.1-4.3-.2a28.61,28.61,0,0,1-3-.3,62.44,62.44,0,0,0-6.9-.4,2.31,2.31,0,0,0-2,1.2,5,5,0,0,0-.7,2.7,4.09,4.09,0,0,0,.7,2.5,2.39,2.39,0,0,0,2.1,1l8.9-.3a40.86,40.86,0,0,0-6.9,5.8,22.53,22.53,0,0,0-2.1,2.4c-2.6,2.3-9,5.2-10.2,6.1a7.18,7.18,0,0,1-4.5,1.5,3.69,3.69,0,0,1-2.7-1.1,7.11,7.11,0,0,1-1.5-3.7,96,96,0,0,0,11.3-19.6q4.2-9.9,4.2-17.4c0-3.5-.6-6.2-1.7-8a5.3,5.3,0,0,0-4.8-2.8c-3.6,0-6.7,2.4-9.2,7.1a62,62,0,0,0-5.9,16.9,89.24,89.24,0,0,0-2,17.3l-.1.1a135.3,135.3,0,0,1-9.4,9.9,7.18,7.18,0,0,1-4.5,1.5,3.69,3.69,0,0,1-2.7-1.1,7.11,7.11,0,0,1-1.5-3.7,96,96,0,0,0,11.3-19.6q4.2-9.9,4.2-17.4c0-3.5-.6-6.2-1.7-8a5.3,5.3,0,0,0-4.8-2.8c-3.6,0-6.7,2.4-9.2,7.1a62,62,0,0,0-5.9,16.9,92,92,0,0,0-2,17.5c0,1.5.1,3,.2,4.3l-.3.3c-1.9,2.3-3.4,3.9-4.5,5a4.54,4.54,0,0,1-2.8,1.6,1.67,1.67,0,0,1-1.7-1,7.2,7.2,0,0,1-.5-2.9,55.24,55.24,0,0,1,1.5-9.4,49.82,49.82,0,0,0,1.2-7.3c0-1.4-1.1-2.1-3.2-2.1a4.68,4.68,0,0,0-3,.8,5.56,5.56,0,0,0-1.5,2.8,63.33,63.33,0,0,0-1.9,8.3q-.45,2.7-.6,4.8a41.84,41.84,0,0,1-4.3,4.6,4.75,4.75,0,0,1-2.9,1.5,1.43,1.43,0,0,1-1.2-.6,2.46,2.46,0,0,1-.5-1.5,58.8,58.8,0,0,1,1.5-10.1,48.63,48.63,0,0,0,.9-6.3c0-1.5-1-2.2-3.1-2.2a12.65,12.65,0,0,0-2.8.3,4.27,4.27,0,0,0-.8-1.9c-.3-.4-.9-.5-1.9-.5a14.11,14.11,0,0,0-8.2,2.7,19.23,19.23,0,0,0-6.2,7.3,20,20,0,0,0-2.3,9.6,11.29,11.29,0,0,0,2.3,7.4,7.6,7.6,0,0,0,6.2,2.8c3.3,0,6.1-1.8,8.3-5.3a9.91,9.91,0,0,0,2.6,3.9,6.15,6.15,0,0,0,3.8,1.4,9.08,9.08,0,0,0,5.6-2.2,26,26,0,0,0,3.5-3.2,9.48,9.48,0,0,0,1.1,2.5c1.2,1.9,3.2,2.9,6,2.9,3.5,0,7.2-2.4,11.2-7.1l.9,2.1a8.63,8.63,0,0,0,8.2,5,12.68,12.68,0,0,0,7.2-2.1,93.94,93.94,0,0,0,8.8-8.5,18.54,18.54,0,0,0,2,5.6,8.63,8.63,0,0,0,8.2,5,12.68,12.68,0,0,0,7.2-2.1,38.75,38.75,0,0,1,3.5-2c0,.3-.1.6-.1.9,0,2.9,1.1,4.3,3.3,4.3a12.68,12.68,0,0,0,2.8-.6,8.1,8.1,0,0,1,2.4-.6c1.6,0,4.3.1,8.2.3,1,0,2.2.1,3.5.1s2.7.1,4.3.1a2.31,2.31,0,0,0,2-1.2,5.07,5.07,0,0,0,.7-2.8,4.41,4.41,0,0,0-.7-2.6C160.05,57.88,159.35,57.48,158.45,57.58Zm-105.8-5.2a11.91,11.91,0,0,1-1.8,4.4,3.3,3.3,0,0,1-2.7,1.6,2.79,2.79,0,0,1-2.2-.9,4.56,4.56,0,0,1-.8-2.9,16.68,16.68,0,0,1,1.3-6.7,13.81,13.81,0,0,1,3.6-5.1,7.85,7.85,0,0,1,4.9-2Zm42.8-22.8a85.1,85.1,0,0,1,3.2-13c1.2-3.5,2.3-5.2,3.3-5.2q1.8,0,1.8,4.8a41.64,41.64,0,0,1-2.6,13.5,83.17,83.17,0,0,1-7.1,14.8A88,88,0,0,1,95.45,29.58Zm26.3,0a85.1,85.1,0,0,1,3.2-13c1.2-3.5,2.3-5.2,3.3-5.2q1.8,0,1.8,4.8a39.44,39.44,0,0,1-2.7,13.5,83.17,83.17,0,0,1-7.1,14.8A79.22,79.22,0,0,1,121.75,29.58Z" transform="translate(-2.45 -2.77)"/><path class="cls-1" d="M12,15.68a9.81,9.81,0,0,1,3.1-2.4,13.07,13.07,0,0,1,4.1-1.2,33.35,33.35,0,0,1,10.2.8c7.2,1.5,14.2,4.4,21.6,7.4a47.46,47.46,0,0,0,6.4,2,18.78,18.78,0,0,0,7.5.1,11.44,11.44,0,0,0,4.1-1.8,9.38,9.38,0,0,0,2.9-3.7,7.68,7.68,0,0,0-2-9.1,2.86,2.86,0,0,0-3.4-.2,2.9,2.9,0,0,0-.8,4l.4.6a1.52,1.52,0,0,1-.2,1.8,2.91,2.91,0,0,1-2.3,1.2,11.68,11.68,0,0,1-4.3-.6,31.89,31.89,0,0,1-4.8-1.9c-7.1-3.4-14.7-7-23.1-8.8A36.92,36.92,0,0,0,18,3.08a18.89,18.89,0,0,0-7.1,2.5,13.86,13.86,0,0,0-3.1,2.3,19.78,19.78,0,0,0-2.7,3,15.73,15.73,0,0,0-2.6,7.7,14.7,14.7,0,0,0,.6,4.5,9,9,0,0,0,2.6,4,13.3,13.3,0,0,0,1.9,1.4,13.27,13.27,0,0,0,2.1.9,11.44,11.44,0,0,0,4.5.3,9.59,9.59,0,0,0,4.2-1.7,8.07,8.07,0,0,0,2.8-3.8,3,3,0,0,0-1-3.3,2.9,2.9,0,0,0-4.1.6l-.5.2a2.76,2.76,0,0,1-.9.7,3.42,3.42,0,0,1-2.8,0c-.2-.1-.4-.3-.6-.4l-.4-.4a3,3,0,0,1-.4-2.4A6.83,6.83,0,0,1,12,15.68Z" transform="translate(-2.45 -2.77)"/><path class="cls-1" d="M197.75,47.68h-1.2a.6.6,0,0,0-.4.1c-.1,0-.1.1-.2.2s-.1.1-.1.2l-3.7,14.2h0l-3.9-14.2a.35.35,0,0,0-.1-.2c0-.1-.1-.1-.2-.2s-.2-.1-.3-.1h-1.2c-.2,0-.3,0-.4.1a.22.22,0,0,0-.2.2c0,.1-.1.1-.1.2l-3.6,14.2h0l-3.9-14.3c0-.1,0-.2-.1-.2s-.1-.1-.2-.1-.2-.1-.4-.1h-1.3c-.2,0-.3.1-.4.1s-.1.1-.1.3a1.09,1.09,0,0,0,.1.5l4.5,15.7c0,.1.1.2.1.3s.2.1.3.2a4.33,4.33,0,0,0,.5.1h1.4c.2,0,.3,0,.4-.1s.2-.1.3-.2a.37.37,0,0,0,.1-.3l3.3-12.8h0l3.5,12.8c0,.1.1.2.1.3s.2.1.3.2a.75.75,0,0,0,.5.1h1.4a.9.9,0,0,0,.5-.1c.1,0,.2-.1.3-.2s.1-.2.2-.3l4.5-15.6a4.33,4.33,0,0,1,.1-.5.37.37,0,0,0-.1-.3C198,47.78,197.85,47.68,197.75,47.68Z" transform="translate(-2.45 -2.77)"/><path class="cls-1" d="M207.55,52.58v-.2l-.1-.1c-.1,0-.1-.1-.3-.1s-.3-.1-.4-.1-.3-.1-.5-.1h-.4a2.2,2.2,0,0,0-.8.1,5.9,5.9,0,0,0-.8.4,5,5,0,0,0-.8.7,6.23,6.23,0,0,0-.9,1.2v-1.9a.35.35,0,0,0-.2-.1c-.1,0-.2-.1-.3-.1h-1a.37.37,0,0,0-.3.1c-.1,0-.1.1-.2.1v12.2a.35.35,0,0,0,.2.1c.1,0,.2.1.3.1h1a.37.37,0,0,0,.3-.1c.1,0,.1-.1.2-.1a.35.35,0,0,0,.1-.2v-7.8c.3-.5.6-.9.8-1.2s.5-.6.7-.8a2.51,2.51,0,0,1,.7-.4,1.27,1.27,0,0,1,.6-.1.75.75,0,0,1,.5.1c.2,0,.3.1.4.1s.2.1.3.1.2.1.3.1.1,0,.2-.1a.35.35,0,0,0,.1-.2.37.37,0,0,1,.1-.3V53C207.65,52.78,207.65,52.68,207.55,52.58Z" transform="translate(-2.45 -2.77)"/><path class="cls-1" d="M211.75,47.28a1.61,1.61,0,0,0-1.1.3,1.31,1.31,0,0,0,1,2.3,1.61,1.61,0,0,0,1.1-.3,1.31,1.31,0,0,0-1-2.3Z" transform="translate(-2.45 -2.77)"/><path class="cls-1" d="M212.55,52.28c-.1,0-.2-.1-.3-.1h-1c-.1,0-.3,0-.3.1s-.1.1-.2.1v12.2a.35.35,0,0,0,.2.1c.1,0,.2.1.3.1h1a.37.37,0,0,0,.3-.1c.1,0,.1-.1.2-.1a.35.35,0,0,0,.1-.2V52.58c0-.1,0-.1-.1-.2S212.65,52.28,212.55,52.28Z" transform="translate(-2.45 -2.77)"/><path class="cls-1" d="M223.05,54c.1,0,.2-.1.3-.2s.1-.4.1-.7v-.4a.37.37,0,0,0-.1-.3c0-.1-.1-.1-.1-.2s-.1,0-.2,0h-3v-2.8c0-.1,0-.1-.1-.2s-.1-.1-.2-.1-.2-.1-.3-.1h-1c-.1,0-.3,0-.3.1s-.1.1-.2.1v3h-1.8c-.1,0-.1.1-.1.2s-.1.2-.1.3v.4a1.48,1.48,0,0,0,.1.7c.1.2.2.2.3.2h1.7v6.9a9,9,0,0,0,.2,1.8,2.28,2.28,0,0,0,.6,1.2,2.1,2.1,0,0,0,1.1.7,3.9,3.9,0,0,0,1.6.2h.6c.2,0,.4-.1.6-.1s.3-.1.5-.2.2-.1.3-.2.1-.2.2-.3a3.54,3.54,0,0,0,.1-.6V63c0-.1,0-.2-.1-.2a.1.1,0,0,1-.1-.1h-.1c-.1,0-.1,0-.2.1s-.2.1-.3.1-.3.1-.4.1-.3.1-.5.1a1.49,1.49,0,0,1-1.3-.6,4,4,0,0,1-.4-1.8v-6.6h2.6Z" transform="translate(-2.45 -2.77)"/><path class="cls-1" d="M235.35,53.58a4.81,4.81,0,0,0-1.6-1.2,5.75,5.75,0,0,0-2.4-.4,5.56,5.56,0,0,0-2.3.5,4.63,4.63,0,0,0-1.8,1.3,4.69,4.69,0,0,0-1.1,2.1,7.66,7.66,0,0,0-.4,2.7,7.89,7.89,0,0,0,.4,2.8,5.47,5.47,0,0,0,1.1,2,5.67,5.67,0,0,0,1.8,1.2,6.57,6.57,0,0,0,2.5.4,8.08,8.08,0,0,0,1.6-.1c.5-.1.9-.2,1.3-.3a4.65,4.65,0,0,0,.9-.3l.4-.2a.35.35,0,0,0,.1-.2c0-.1.1-.1.1-.2v-.9a.37.37,0,0,0-.1-.3l-.1-.1h-.2a1.09,1.09,0,0,0-.5.1,6.89,6.89,0,0,1-.8.3c-.3.1-.7.2-1.1.3a6.62,6.62,0,0,1-1.5.1,4.84,4.84,0,0,1-1.8-.3,2.73,2.73,0,0,1-1.2-.9,5.39,5.39,0,0,1-.7-1.3,9,9,0,0,1-.2-1.8h7.8a1.42,1.42,0,0,0,.6-.2.78.78,0,0,0,.3-.7v-.4a7.8,7.8,0,0,0-.3-2.2A3.7,3.7,0,0,0,235.35,53.58Zm-7.3,3.7a3.53,3.53,0,0,1,.3-1.4l.6-1.2a3.92,3.92,0,0,1,1-.8,3.19,3.19,0,0,1,1.4-.3,3,3,0,0,1,2.4,1,4.14,4.14,0,0,1,.8,2.7Z" transform="translate(-2.45 -2.77)"/><path class="cls-1" d="M256.25,52.18h-1.2a1,1,0,0,0-.3.1c-.1,0-.1.2-.2.3l-3.2,9.5h0l-3.4-9.5c0-.1-.1-.2-.1-.3s-.1-.1-.2-.2-.2-.1-.4-.1h-1.2a1,1,0,0,0-.3.1c-.1.1-.1.1-.1.2a.76.76,0,0,0,.1.4L250,64a.35.35,0,0,0,.1.2l.2.2-1.6,4.1a.37.37,0,0,0-.1.3c0,.1,0,.2.1.2a.37.37,0,0,0,.3.1h.5a2.79,2.79,0,0,0,1-.1,1.38,1.38,0,0,0,.4-.3l1.6-4.3,4.2-11.7a.76.76,0,0,0,.1-.4c0-.1,0-.2-.1-.2S256.45,52.18,256.25,52.18Z" transform="translate(-2.45 -2.77)"/><path class="cls-1" d="M269,53.68a5.94,5.94,0,0,0-1.8-1.3,6.57,6.57,0,0,0-2.5-.4,6.69,6.69,0,0,0-2.6.5,4.5,4.5,0,0,0-1.9,1.4,5.29,5.29,0,0,0-1.1,2.1,11,11,0,0,0-.4,2.7,7.66,7.66,0,0,0,.4,2.7,4.33,4.33,0,0,0,1.1,2,4.63,4.63,0,0,0,1.8,1.3,6.57,6.57,0,0,0,2.5.4,6.69,6.69,0,0,0,2.6-.5,4.5,4.5,0,0,0,1.9-1.4,5.29,5.29,0,0,0,1.1-2.1,9.31,9.31,0,0,0,0-5.4A7.49,7.49,0,0,0,269,53.68Zm-1,6.7a3.48,3.48,0,0,1-.7,1.5,5.24,5.24,0,0,1-1.1,1,4.31,4.31,0,0,1-1.7.3,2.86,2.86,0,0,1-1.7-.4,2.66,2.66,0,0,1-1.1-1,3.39,3.39,0,0,1-.6-1.5,8.65,8.65,0,0,1,0-3.7,3.48,3.48,0,0,1,.7-1.5,5.24,5.24,0,0,1,1.1-1,4.31,4.31,0,0,1,1.7-.3,2.86,2.86,0,0,1,1.7.4,2.66,2.66,0,0,1,1.1,1,3.39,3.39,0,0,1,.6,1.5,8.65,8.65,0,0,1,0,3.7Z" transform="translate(-2.45 -2.77)"/><path class="cls-1" d="M284,52.28c-.1,0-.2-.1-.3-.1h-1a.37.37,0,0,0-.3.1c-.1,0-.1.1-.2.1v8.4a13.54,13.54,0,0,1-1.7,1.7,2.66,2.66,0,0,1-1.6.6,3.59,3.59,0,0,1-1.1-.2,2.7,2.7,0,0,1-.8-.7,2.81,2.81,0,0,1-.5-1.1,7.18,7.18,0,0,1-.2-1.7v-6.9c0-.1,0-.1-.1-.2a.35.35,0,0,0-.2-.1c-.1,0-.2-.1-.3-.1h-1c-.1,0-.3,0-.3.1s-.1.1-.2.1v7.4a12.73,12.73,0,0,0,.2,2.2,4.59,4.59,0,0,0,.7,1.6,3.48,3.48,0,0,0,1.3,1.1,4,4,0,0,0,2,.4,4.92,4.92,0,0,0,2-.5,7,7,0,0,0,2-1.6v1.8a.35.35,0,0,0,.2.1c.1,0,.2.1.3.1h1a.37.37,0,0,0,.3-.1c.1,0,.1-.1.2-.1V52.58c0-.1,0-.1-.1-.2S284.05,52.28,284,52.28Z" transform="translate(-2.45 -2.77)"/><path class="cls-1" d="M295.55,52.58v-.2l-.1-.1c-.1,0-.1-.1-.3-.1s-.3-.1-.4-.1-.3-.1-.5-.1h-.4a2.2,2.2,0,0,0-.8.1,5.9,5.9,0,0,0-.8.4,5,5,0,0,0-.8.7,6.23,6.23,0,0,0-.9,1.2v-1.9a.35.35,0,0,0-.2-.1c-.1,0-.2-.1-.3-.1h-1a.37.37,0,0,0-.3.1c-.1,0-.1.1-.2.1v12.2a.35.35,0,0,0,.2.1c.1,0,.2.1.3.1h1a.37.37,0,0,0,.3-.1c.1,0,.1-.1.2-.1a.35.35,0,0,0,.1-.2v-7.8c.3-.5.6-.9.8-1.2s.5-.6.7-.8a2.51,2.51,0,0,1,.7-.4,1.27,1.27,0,0,1,.6-.1.75.75,0,0,1,.5.1c.2,0,.3.1.4.1s.2.1.3.1.2.1.3.1.1,0,.2-.1a.35.35,0,0,0,.1-.2.37.37,0,0,1,.1-.3V53C295.55,52.78,295.55,52.68,295.55,52.58Z" transform="translate(-2.45 -2.77)"/><path class="cls-1" d="M304.65,58.88a3.59,3.59,0,0,0-1-.7c-.4-.2-.7-.3-1.1-.5a4.87,4.87,0,0,0-1.1-.4,3.13,3.13,0,0,1-1-.5,4.35,4.35,0,0,1-.7-.6,1.22,1.22,0,0,1-.3-.9,1.7,1.7,0,0,1,.1-.7,1,1,0,0,1,.4-.5,4.35,4.35,0,0,1,.7-.4,3.08,3.08,0,0,1,1-.1,3.75,3.75,0,0,1,1.1.1,6.89,6.89,0,0,1,.8.3l.6.3a.49.49,0,0,0,.3.1h.1a.35.35,0,0,0,.1-.2c0-.1.1-.2.1-.3v-1c0-.1,0-.1-.1-.2s-.1-.1-.2-.2a.52.52,0,0,0-.4-.2l-.6-.3c-.3-.1-.5-.1-.9-.2a3.08,3.08,0,0,0-.9-.1,5.82,5.82,0,0,0-1.9.3,2.87,2.87,0,0,0-1.3.8,2.84,2.84,0,0,0-.8,1.1,3.08,3.08,0,0,0-.3,1.3,2.5,2.5,0,0,0,.3,1.3,6.07,6.07,0,0,0,.7,1,5.5,5.5,0,0,0,.9.7,5.36,5.36,0,0,0,1.1.5c.4.1.7.3,1.1.4a2.62,2.62,0,0,1,.9.5c.2.2.5.4.7.6a1.14,1.14,0,0,1,.3.8,1.88,1.88,0,0,1-.2.8,2.65,2.65,0,0,1-.5.6,1.14,1.14,0,0,1-.8.3,3.08,3.08,0,0,1-1,.1,5.07,5.07,0,0,1-1.3-.2,3,3,0,0,1-1-.4,4.35,4.35,0,0,1-.7-.4c-.2-.1-.3-.2-.4-.2h-.2a.35.35,0,0,0-.1.2.37.37,0,0,1-.1.3c-.1.1,0,.3,0,.4,0,.3,0,.5.1.6a.52.52,0,0,0,.2.4,1.07,1.07,0,0,0,.5.3,6.89,6.89,0,0,0,.8.3,3,3,0,0,0,1,.2c.4,0,.8.1,1.2.1a11.08,11.08,0,0,0,1.9-.2,5.23,5.23,0,0,0,1.5-.7,4,4,0,0,0,1-1.2,2.88,2.88,0,0,0,.3-1.6,2.77,2.77,0,0,0-.3-1.3C305.05,59,304.85,59.18,304.65,58.88Z" transform="translate(-2.45 -2.77)"/><path class="cls-1" d="M318.05,53.58a4.81,4.81,0,0,0-1.6-1.2,5.75,5.75,0,0,0-2.4-.4,5.56,5.56,0,0,0-2.3.5,4.63,4.63,0,0,0-1.8,1.3,4.69,4.69,0,0,0-1.1,2.1,7.66,7.66,0,0,0-.4,2.7,7.89,7.89,0,0,0,.4,2.8,5.47,5.47,0,0,0,1.1,2,5.67,5.67,0,0,0,1.8,1.2,6.57,6.57,0,0,0,2.5.4,8.08,8.08,0,0,0,1.6-.1c.5-.1.9-.2,1.3-.3a4.65,4.65,0,0,0,.9-.3l.4-.2a.35.35,0,0,0,.1-.2c0-.1.1-.1.1-.2v-.9a.37.37,0,0,0-.1-.3l-.1-.1h-.2a1.09,1.09,0,0,0-.5.1,6.89,6.89,0,0,1-.8.3c-.3.1-.7.2-1.1.3a6.62,6.62,0,0,1-1.5.1,4.84,4.84,0,0,1-1.8-.3,2.73,2.73,0,0,1-1.2-.9,5.39,5.39,0,0,1-.7-1.3,9,9,0,0,1-.2-1.8h7.8a1.42,1.42,0,0,0,.6-.2.78.78,0,0,0,.3-.7v-.4a7.8,7.8,0,0,0-.3-2.2A3.7,3.7,0,0,0,318.05,53.58Zm-7.4,3.7a3.53,3.53,0,0,1,.3-1.4,13.39,13.39,0,0,1,.6-1.2,3.92,3.92,0,0,1,1-.8,3.19,3.19,0,0,1,1.4-.3,3,3,0,0,1,2.4,1,4.14,4.14,0,0,1,.8,2.7Z" transform="translate(-2.45 -2.77)"/><path class="cls-1" d="M325,46.58c-.1,0-.2-.1-.3-.1h-1c-.1,0-.3,0-.3.1s-.1.1-.2.1v17.9a.35.35,0,0,0,.2.1c.1,0,.2.1.3.1h1a.37.37,0,0,0,.3-.1c.1,0,.1-.1.2-.1a.35.35,0,0,0,.1-.2V46.88c0-.1,0-.1-.1-.2S325.05,46.58,325,46.58Z" transform="translate(-2.45 -2.77)"/><path class="cls-1" d="M336.15,47.28a.37.37,0,0,0-.1-.3.31.31,0,0,1-.1-.2,1.44,1.44,0,0,1-.3-.2c-.1-.1-.4-.1-.7-.2a2.77,2.77,0,0,0-.9-.1,4.67,4.67,0,0,0-1.7.3,3.6,3.6,0,0,0-1.2.8,6.11,6.11,0,0,0-.7,1.4,6.82,6.82,0,0,0-.2,2.1v1.2h-1.9c-.1,0-.1.1-.1.2s-.1.2-.1.3V53a1.48,1.48,0,0,0,.1.7c.1.1.2.2.3.2h1.7v10.3c0,.1,0,.1.1.2a.35.35,0,0,0,.2.1c.1,0,.2.1.3.1h1c.1,0,.3,0,.3-.1s.1-.1.2-.1a.35.35,0,0,0,.1-.2V54h2.6c.1,0,.2-.1.3-.2s.1-.4.1-.7v-.4c0-.1-.1-.2-.1-.3s-.1-.1-.1-.2-.1,0-.2,0h-2.6v-1.3a5.28,5.28,0,0,1,.1-1.3,9.44,9.44,0,0,1,.3-.9c.1-.3.3-.4.6-.5a1.88,1.88,0,0,1,.8-.2,1.27,1.27,0,0,1,.6.1c.2,0,.3.1.5.1s.2.1.3.1a.35.35,0,0,1,.2.1h.1l.1-.1c0-.1,0-.1.1-.2v-.8Z" transform="translate(-2.45 -2.77)"/></svg>