<svg id="Capa_1" data-name="Capa 1" xmlns="http://www.w3.org/2000/svg" viewBox="0 0 284 244"><defs><style>.cls-1{fill:#fff;}</style></defs><title>Menu_White</title><path class="cls-1" d="M271,8.9H23a18.05,18.05,0,0,0-18,18H5a18.05,18.05,0,0,0,18,18H271a18.05,18.05,0,0,0,18-18h0A18.05,18.05,0,0,0,271,8.9Z" transform="translate(-5 -8.9)"/><path class="cls-1" d="M271,112.9H23a18.05,18.05,0,0,0-18,18H5a18.05,18.05,0,0,0,18,18H271a18.05,18.05,0,0,0,18-18h0A18.05,18.05,0,0,0,271,112.9Z" transform="translate(-5 -8.9)"/><path class="cls-1" d="M271,216.9H23a18.05,18.05,0,0,0-18,18H5a18.05,18.05,0,0,0,18,18H271a18.05,18.05,0,0,0,18-18h0A18.05,18.05,0,0,0,271,216.9Z" transform="translate(-5 -8.9)"/></svg>