<svg id="Capa_1" data-name="Capa 1" xmlns="http://www.w3.org/2000/svg" viewBox="0 0 284.98 285"><defs><style>.cls-1{fill:#fff;}</style></defs><title>Search_white</title><path class="cls-1" d="M297.82,134.74A111.52,111.52,0,0,0,140.11,292.46c38.72,38.71,99,42.86,142.46,12.63a23.57,23.57,0,0,0,6.37,11.82l63.32,63.31a23.56,23.56,0,1,0,33.32-33.31l-63.32-63.34a23.61,23.61,0,0,0-11.81-6.35C340.7,233.76,336.55,173.47,297.82,134.74Zm-20,137.73a83.25,83.25,0,1,1,0-117.73A83.34,83.34,0,0,1,277.83,272.47Z" transform="translate(-107.51 -102.13)"/></svg>