<?xml version="1.0" encoding="utf-8"?>
<!-- Generator: Adobe Illustrator 22.1.0, SVG Export Plug-In . SVG Version: 6.00 Build 0)  -->
<svg version="1.1" id="Layer_1" xmlns="http://www.w3.org/2000/svg" xmlns:xlink="http://www.w3.org/1999/xlink" x="0px" y="0px"
	 viewBox="0 0 360 360" style="enable-background:new 0 0 360 360;" xml:space="preserve">
<style type="text/css">
	.st0{fill:#F2E70F;}
	.st1{fill:#FFFFFF;}
</style>
<circle class="st0" cx="180.9" cy="180.4" r="168.4"/>
<path class="st1" d="M224.9,170.9h-32.6c-1.1,0-1.9-0.9-1.9-1.9v-32.6c0-5.3-4.3-9.6-9.6-9.6s-9.6,4.3-9.6,9.6V169
	c0,1.1-0.9,1.9-1.9,1.9h-32.6c-5.3,0-9.6,4.3-9.6,9.6s4.3,9.6,9.6,9.6h32.6c1.1,0,1.9,0.9,1.9,1.9v32.6c0,5.3,4.3,9.6,9.6,9.6
	s9.6-4.3,9.6-9.6V192c0-1.1,0.9-1.9,1.9-1.9h32.6c5.3,0,9.6-4.3,9.6-9.6S230.2,170.9,224.9,170.9z"/>
</svg>
