<svg id="Layer_1" data-name="Layer 1" xmlns="http://www.w3.org/2000/svg" xmlns:xlink="http://www.w3.org/1999/xlink" viewBox="0 0 360 360"><defs><style>.cls-1{fill:url(#linear-gradient);}.cls-2{fill:#fff;}</style><linearGradient id="linear-gradient" x1="12.5" y1="180.4" x2="349.3" y2="180.4" gradientUnits="userSpaceOnUse"><stop offset="0" stop-color="#ff40e1"/><stop offset="1" stop-color="#cd87ff"/></linearGradient></defs><title>icons</title><circle class="cls-1" cx="180.9" cy="180.4" r="168.4"/><path class="cls-2" d="M224.9,170.9H192.3a1.9,1.9,0,0,1-1.9-1.9V136.4a9.6,9.6,0,0,0-19.2,0V169a1.9,1.9,0,0,1-1.9,1.9H136.7a9.6,9.6,0,0,0,0,19.2h32.6a1.9,1.9,0,0,1,1.9,1.9v32.6a9.6,9.6,0,1,0,19.2,0V192a1.9,1.9,0,0,1,1.9-1.9h32.6A9.6,9.6,0,1,0,224.9,170.9Z"/></svg>