<?xml version="1.0" encoding="utf-8"?>
<!-- Generator: Adobe Illustrator 22.1.0, SVG Export Plug-In . SVG Version: 6.00 Build 0)  -->
<svg version="1.1" id="Layer_1" xmlns="http://www.w3.org/2000/svg" xmlns:xlink="http://www.w3.org/1999/xlink" x="0px" y="0px"
	 viewBox="0 0 512 512" style="enable-background:new 0 0 512 512;" xml:space="preserve">
<style type="text/css">
	.st0{fill:url(#SVGID_1_);}
</style>
<g>
	<g>
		<linearGradient id="SVGID_1_" gradientUnits="userSpaceOnUse" x1="4.152455e-05" y1="256" x2="512.0009" y2="256">
			<stop  offset="0" style="stop-color:#493C94"/>
			<stop  offset="1" style="stop-color:#A071BF"/>
		</linearGradient>
		<path class="st0" d="M504.5,365.9c-60.2-60.2-69.3-90.5-69.3-186.7C435.2,80.2,355,0,256,0S76.8,80.2,76.8,179.2
			c0,51.9-1.4,71.3-8.5,95c-8.9,29.6-27.1,58-60.8,91.7c-16.1,16.1-4.7,43.7,18.1,43.7h142.1l-1.3,12.8c0,49.5,40.1,89.6,89.6,89.6
			s89.6-40.1,89.6-89.6l-1.3-12.8h142.1C509.2,409.6,520.6,382,504.5,365.9z M256,486.4c-35.3,0-64-28.7-64-64l1.3-12.8h125.4
			l1.3,12.8C320,457.7,291.3,486.4,256,486.4z M25.7,384c76.8-76.8,76.8-128,76.8-204.8c0-84.8,68.8-153.6,153.6-153.6
			s153.6,68.8,153.6,153.6c0,76.8,0,128,76.8,204.8H25.7z"/>
	</g>
</g>
</svg>
