<?xml version="1.0" encoding="utf-8"?>
<!-- Generator: Adobe Illustrator 23.0.3, SVG Export Plug-In . SVG Version: 6.00 Build 0)  -->
<svg version="1.1" id="Capa_1" xmlns="http://www.w3.org/2000/svg" xmlns:xlink="http://www.w3.org/1999/xlink" x="0px" y="0px"
	 viewBox="0 0 500 500" style="enable-background:new 0 0 500 500;" xml:space="preserve">
<style type="text/css">
	.st0{fill:url(#SVGID_1_);}
	.st1{fill:#FFFFFF;}
</style>
<linearGradient id="SVGID_1_" gradientUnits="userSpaceOnUse" x1="46.1299" y1="396.3913" x2="546.1299" y2="396.3913" gradientTransform="matrix(6.123234e-17 -1 1 6.123234e-17 -146.3918 546.1299)">
	<stop  offset="0" style="stop-color:#F7AC3C"/>
	<stop  offset="1" style="stop-color:#EDAB4D"/>
</linearGradient>
<circle class="st0" cx="250" cy="250" r="250"/>
<g>
	<path class="st1" d="M376.1,263.5c-3.8-3.8-9.9-3.8-13.7-0.1l-22.2,22V250c0-27.9-10.9-54.2-30.6-73.9
		c-19.7-19.7-46-30.6-73.9-30.6c-17.1,0-34.1,4.2-49.1,12.2c0,0,0,0-0.1,0c0,0-0.1,0-0.1,0.1c0,0,0,0,0,0c-0.1,0.1-0.2,0.1-0.3,0.2
		c0,0-0.1,0-0.1,0.1c0,0-0.1,0-0.1,0.1c-0.6,0.3-1.1,0.6-1.7,0.9c0,0-0.1,0-0.1,0.1c-2.3,1.3-4.5,2.7-6.7,4.1c-4.4,3-5.6,9-2.6,13.4
		c1.9,2.8,4.9,4.3,8,4.3c1.9,0,3.7-0.5,5.4-1.6c2.4-1.6,4.9-3.1,7.4-4.5c12.3-6.5,26.1-10,40.1-10c47,0,85.2,38.2,85.2,85.2v35.7
		l-22.3-21.7c-3.8-3.7-10-3.7-13.7,0.2c-3.7,3.8-3.7,10,0.2,13.7l25,24.4c5.6,5.5,13,8.2,20.3,8.2c7.4,0,14.9-2.8,20.5-8.4
		l25.1-24.9C379.8,273.4,379.8,267.3,376.1,263.5z"/>
	<path class="st1" d="M141.3,263.5c5.3-0.2,9.5-4.7,9.3-10.1c0-1.2-0.1-2.3-0.1-3.5c0-1.7,0.1-3.5,0.2-5.2c0.3-5.3-3.7-9.9-9.1-10.2
		c-5.3-0.3-9.9,3.7-10.2,9.1c-0.1,2.1-0.2,4.3-0.2,6.4c0,1.4,0,2.9,0.1,4.3c0.2,5.2,4.5,9.3,9.7,9.3
		C141,263.5,141.1,263.5,141.3,263.5z"/>
	<path class="st1" d="M158.9,287c-2.3-4.8-8.1-6.8-12.9-4.5c-4.8,2.3-6.8,8.1-4.5,12.9c1.5,3.2,3.3,6.3,5.1,9.3c1.8,3,5,4.6,8.2,4.6
		c1.7,0,3.5-0.5,5.1-1.4c4.6-2.8,6-8.8,3.2-13.3C161.6,292.1,160.2,289.5,158.9,287z"/>
	<path class="st1" d="M235.6,335.2c-2.9,0-5.8-0.1-8.7-0.4c-5.3-0.5-10.1,3.3-10.6,8.7c-0.5,5.3,3.3,10.1,8.7,10.6
		c3.5,0.4,7.1,0.5,10.6,0.5h0c5.3,0,9.7-4.3,9.7-9.7C245.3,339.5,241,335.2,235.6,335.2z"/>
	<path class="st1" d="M194.1,324.3c-2.5-1.4-5-3-7.3-4.6c-4.4-3.1-10.4-2-13.5,2.3c-3.1,4.4-2,10.4,2.3,13.5c2.9,2,5.9,3.9,9,5.7
		c1.5,0.8,3.1,1.2,4.7,1.2c3.4,0,6.7-1.8,8.5-4.9C200.4,332.8,198.7,327,194.1,324.3z"/>
	<path class="st1" d="M161.1,190.6c-4.5-2.9-10.5-1.6-13.4,2.9c-1.9,3-3.7,6.1-5.3,9.2c-2.4,4.8-0.5,10.6,4.2,13
		c1.4,0.7,2.9,1.1,4.4,1.1c3.5,0,6.9-1.9,8.6-5.3c1.3-2.6,2.8-5.1,4.3-7.5C166.9,199.5,165.6,193.5,161.1,190.6z"/>
</g>
</svg>
