<?xml version="1.0" encoding="utf-8"?>
<!-- Generator: Adobe Illustrator 23.0.3, SVG Export Plug-In . SVG Version: 6.00 Build 0)  -->
<svg version="1.1" id="Capa_1" xmlns="http://www.w3.org/2000/svg" xmlns:xlink="http://www.w3.org/1999/xlink" x="0px" y="0px"
	 viewBox="0 0 500 500" style="enable-background:new 0 0 500 500;" xml:space="preserve">
<style type="text/css">
	.st0{fill:url(#SVGID_1_);}
	.st1{fill:#FFFFFF;}
</style>
<linearGradient id="SVGID_1_" gradientUnits="userSpaceOnUse" x1="46.1299" y1="396.3913" x2="546.1299" y2="396.3913" gradientTransform="matrix(6.123234e-17 -1 1 6.123234e-17 -146.3918 546.1299)">
	<stop  offset="0" style="stop-color:#76767D"/>
	<stop  offset="1" style="stop-color:#A3A1BF"/>
</linearGradient>
<circle class="st0" cx="250" cy="250" r="250"/>
<path class="st1" d="M354.4,279.1l-22.3-22.3c-1.4-1.4-3.3-2.2-5.3-2.2h-21.1v-15.4l26.4-26.4c1.4-1.4,2.2-3.3,2.2-5.3v-41.4
	c0-4.1-3.4-7.5-7.5-7.5s-7.5,3.4-7.5,7.5v38.3L305.7,218v-6.1c0-4.1-3.4-7.5-7.5-7.5h-5c-2.7-15.4-13.4-28-27.7-33.4l26.1-26.1
	c2.9-2.9,2.9-7.7,0-10.6c-2.9-2.9-7.7-2.9-10.6,0l-30.9,30.9l-30.6-30.6c-2.9-2.9-7.7-2.9-10.6,0s-2.9,7.7,0,10.6l25.9,25.9
	c-14.3,5.4-25,18-27.7,33.4h-5.4c-4.1,0-7.5,3.4-7.5,7.5v6.1l-13.6-13.6v-38.3c0-4.1-3.4-7.5-7.5-7.5c-4.1,0-7.5,3.4-7.5,7.5v41.4
	c0,2,0.8,3.9,2.2,5.3l26.4,26.4v15.4h-21.1c-2,0-3.9,0.8-5.3,2.2l-22.3,22.3c-2.9,2.9-2.9,7.7,0,10.6c1.5,1.5,3.4,2.2,5.3,2.2
	c1.9,0,3.8-0.7,5.3-2.2l20.1-20.1h18v7.3l-27,35.3c-1,1.3-1.6,2.9-1.6,4.6v43.6c0,4.1,3.4,7.5,7.5,7.5c4.1,0,7.5-3.4,7.5-7.5v-41.1
	l14-18.2c2,17.7,12.3,32.9,27,41.6c0.2,0.1,0.5,0.3,0.7,0.4c8.2,4.7,17.6,7.4,27.7,7.4c10.1,0,19.5-2.7,27.7-7.4
	c0.2-0.1,0.3-0.2,0.5-0.3c14.7-8.7,25.1-24,27.2-41.7l14,18.2v41.1c0,4.1,3.4,7.5,7.5,7.5s7.5-3.4,7.5-7.5v-43.6
	c0-1.7-0.5-3.3-1.6-4.6l-27-35.2v-7.3h18l20.1,20.1c1.5,1.5,3.4,2.2,5.3,2.2s3.8-0.7,5.3-2.2C357.3,286.8,357.3,282,354.4,279.1
	L354.4,279.1z M250.2,183.3c13.2,0,24.4,9,27.7,21.2h-55.3C225.8,192.2,237,183.3,250.2,183.3z M209.3,294.8v-58.7c0,0,0,0,0,0
	v-16.7h33.2v89.7l-17.7,17.7C215.4,319.3,209.3,307.8,209.3,294.8L209.3,294.8z M238.8,334l11.2-11.2l11.2,11.2
	c-3.5,1-7.3,1.6-11.2,1.6C246.1,335.5,242.4,335,238.8,334L238.8,334z M290.7,294.8c0,12.9-6.1,24.5-15.5,31.9l-17.7-17.7v-89.7
	h33.2v16.7c0,0,0,0,0,0L290.7,294.8L290.7,294.8z"/>
</svg>
