<?xml version="1.0" encoding="utf-8"?>
<!-- Generator: Adobe Illustrator 22.1.0, SVG Export Plug-In . SVG Version: 6.00 Build 0)  -->
<svg version="1.1" id="Layer_1" xmlns="http://www.w3.org/2000/svg" xmlns:xlink="http://www.w3.org/1999/xlink" x="0px" y="0px"
	 viewBox="0 0 360 360" style="enable-background:new 0 0 360 360;" xml:space="preserve">
<style type="text/css">
	.st0{fill:#FF9E03;}
	.st1{fill:#FFFFFF;}
</style>
<circle class="st0" cx="180.1" cy="177.2" r="162.5"/>
<path class="st1" d="M225.1,167.5h-33.3c-1.1,0-1.9-0.9-1.9-1.9v-33.3c0-5.4-4.4-9.8-9.8-9.8c-5.4,0-9.8,4.4-9.8,9.8v33.2
	c0,1.1-0.9,1.9-1.9,1.9h-33.3c-5.4,0-9.8,4.4-9.8,9.8c0,5.4,4.4,9.8,9.8,9.8h33.3c1.1,0,1.9,0.9,1.9,1.9v33.3c0,5.4,4.4,9.8,9.8,9.8
	c5.4,0,9.8-4.4,9.8-9.8V189c0-1.1,0.9-1.9,1.9-1.9h33.3c5.4,0,9.8-4.4,9.8-9.8C234.9,171.9,230.5,167.5,225.1,167.5z"/>
</svg>
