<?xml version="1.0" encoding="utf-8"?>
<!-- Generator: Adobe Illustrator 23.0.3, SVG Export Plug-In . SVG Version: 6.00 Build 0)  -->
<svg version="1.1" id="Layer_1" xmlns="http://www.w3.org/2000/svg" xmlns:xlink="http://www.w3.org/1999/xlink" x="0px" y="0px"
	 viewBox="0 0 512 512" style="enable-background:new 0 0 512 512;" xml:space="preserve">
<style type="text/css">
	.st0{opacity:0.14;}
	.st1{fill:#FFFFFF;}
</style>
<g class="st0">
	<path class="st1" d="M271.2,409.8c40.2-15.6,64.4-44.5,68.4-86.7c2.9-29.9-22.7-80.7-46.7-123.9c-0.6-1-1.1-2.1-1.7-3.1
		c-18.4-33-22.2-43.7-22.3-67.1c0-8.5,1.4-18.6,4.2-29.2c2.9-10.7,7.2-21.9,13-32.5c5.1-9.3,9.1-12.6,9.5-14.2c0-0.2,0-0.4-0.1-0.5
		c-0.3-0.3-0.8-0.5-1.6-0.5c-10,0-59.4,26.1-76.3,60.3c0,0.1-0.1,0.1-0.1,0.2c-0.6,1.2-1.1,2.3-1.6,3.5c-0.1,0.3-0.2,0.6-0.3,0.9
		c-0.4,1-0.8,1.9-1.1,2.9c-0.2,0.6-0.4,1.2-0.5,1.8c-0.2,0.7-0.4,1.4-0.6,2.1c-0.3,1.2-0.5,2.4-0.7,3.5c0,0.1-0.1,0.3-0.1,0.4
		c-0.2,1.4-0.4,2.8-0.5,4.3c-0.4,6.7,0.5,16,0.1,17.1c0,0.1-0.1,0.3-0.1,0.3c0,0,0,0,0,0c-1.3,0-2.9-43.5-7.8-43.7c0,0,0,0,0,0
		c-1.6,0-4,4.5-6,11.9c0,0.1,0,0.2-0.1,0.3c-0.1,0.5-0.3,1.1-0.4,1.7c-3.5,14.4-5.5,38.1,1.1,61.7c2.5,9,3.5,8.1,5.5,16.4
		c0.8,3.5,5.9,15.7,8.9,30.7c0,0,8.5,40.2,1.3,50.7c-16.4,23.8-20,22.9-42.6,33.1c-9.5,4.3-20,6-30.5,6c-28.8,0-57.1-12.4-61.2-14.2
		c31.2,70,98.9,112.4,155.7,112.4C248.3,416.1,260.3,414,271.2,409.8z"/>
	<path class="st1" d="M360,243.2c-0.6-1-1.1-2.1-1.7-3.1c-18.4-33-22.2-43.7-22.3-67.1c0-8.5,1.4-18.6,4.2-29.2
		c2.9-10.7,7.2-21.9,13-32.5c5.1-9.3,9.1-12.6,9.5-14.2c0-0.2,0-0.4-0.1-0.5c-0.3-0.3-0.8-0.5-1.6-0.5c-10,0-59.4,26.1-76.3,60.3
		c0,0.1-0.1,0.1-0.1,0.2c-0.5,1.1-1,2.1-1.5,3.2c3,10.3,8.6,21.7,19,40.4l1.7,3.1c12.4,22.4,25.8,47.8,35.1,71.2
		c8.2,20.5,13.2,39.6,11.8,53.9c-2,21.2-9.1,39.5-21.1,54.4c-11.7,14.5-28,26-48.6,34c-11,4.3-23.2,6.4-36.1,6.4
		c-16.5,0-33.8-3.5-50.9-10.1c32.6,30.2,72.9,47.1,108.9,47.1c12.5,0,24.5-2,35.4-6.3c40.2-15.6,64.4-44.5,68.4-86.7
		C409.5,337.2,383.9,286.3,360,243.2z"/>
</g>
</svg>
