<?xml version="1.0" encoding="utf-8"?>
<!-- Generator: Adobe Illustrator 23.0.3, SVG Export Plug-In . SVG Version: 6.00 Build 0)  -->
<svg version="1.1" id="Capa_1" xmlns="http://www.w3.org/2000/svg" xmlns:xlink="http://www.w3.org/1999/xlink" x="0px" y="0px"
	 viewBox="0 0 500 500" style="enable-background:new 0 0 500 500;" xml:space="preserve">
<style type="text/css">
	.st0{fill:url(#SVGID_1_);}
	.st1{fill:#FFFFFF;}
</style>
<linearGradient id="SVGID_1_" gradientUnits="userSpaceOnUse" x1="46.1299" y1="396.7332" x2="546.1299" y2="396.7332" gradientTransform="matrix(6.123234e-17 -1 1 6.123234e-17 -146.3918 546.1299)">
	<stop  offset="0" style="stop-color:#8BAA64"/>
	<stop  offset="1" style="stop-color:#9DBB7A"/>
</linearGradient>
<circle class="st0" cx="250.3" cy="250" r="250"/>
<g>
	<g>
		<path class="st1" d="M346,263.2c4.3,0,7.9-3.5,7.9-7.9v-79.3c0-7.7-3.7-14.9-10-19.3c-6.3-4.4-14.3-5.5-21.5-2.9
			c-0.2,0.1-0.4,0.2-0.7,0.3l-62.9,29.1c-13.8,6.4-28.6,9.7-43.9,9.8l-30.7,0.2c-17.3,0-31.4,14.1-31.4,31.4v20.4
			c0,13.9,9.2,25.9,22,30v54.6c0,6.4,2.6,12.6,7.2,17.1c4.4,4.4,10.2,6.7,16.4,6.7c0.1,0,0.3,0,0.5,0c6.2-0.1,12-2.6,16.4-7
			c4.4-4.4,6.7-10.3,6.7-16.5v-53.5c13.3,1,26.4,4.5,38.3,10.3l61.3,29.7c0.2,0.1,0.5,0.2,0.7,0.3c7.2,2.6,15.3,1.6,21.6-2.8
			c6.3-4.4,10-11.6,10-19.3c0-4.3-3.5-7.9-7.9-7.9s-7.9,3.5-7.9,7.9c0,2.6-1.2,4.9-3.3,6.4c-2,1.4-4.5,1.8-6.9,1.1l-60.9-29.5
			c-14.1-6.8-29.5-10.9-45.1-11.9v-52.2c15.1-0.9,29.7-4.6,43.5-11l62.5-29c2.4-0.7,4.9-0.4,6.9,1.1c2.1,1.5,3.3,3.8,3.3,6.4v79.3
			C338.1,259.7,341.7,263.2,346,263.2z M206.2,329.9c0,4.2-3.5,7.8-7.7,7.9c-2,0-4-0.8-5.5-2.2c-1.6-1.6-2.5-3.7-2.5-5.9v-61.1
			c0-4.1-3.2-7.6-7.3-7.8c-8.2-0.5-14.7-7.4-14.7-15.7v-20.4c0-8.7,7-15.7,15.7-15.7h0l21.9-0.1V329.9z"/>
	</g>
</g>
</svg>
