<?xml version="1.0" encoding="utf-8"?>
<!-- Generator: Adobe Illustrator 22.1.0, SVG Export Plug-In . SVG Version: 6.00 Build 0)  -->
<svg version="1.1" id="Capa_1" xmlns="http://www.w3.org/2000/svg" xmlns:xlink="http://www.w3.org/1999/xlink" x="0px" y="0px"
	 viewBox="0 0 512 512" style="enable-background:new 0 0 512 512;" xml:space="preserve">
<style type="text/css">
	.st0{fill:url(#SVGID_1_);}
	.st1{fill:url(#SVGID_2_);}
</style>
<g>
	<g>
		<linearGradient id="SVGID_1_" gradientUnits="userSpaceOnUse" x1="2.384186e-07" y1="255.9995" x2="511.9985" y2="255.9995">
			<stop  offset="0" style="stop-color:#493C94"/>
			<stop  offset="1" style="stop-color:#A071BF"/>
		</linearGradient>
		<path class="st0" d="M508.7,246C504.2,239.8,395.2,92.8,256,92.8S7.8,239.8,3.2,246c-4.3,5.9-4.3,14,0,19.9
			c4.6,6.3,113.6,153.2,252.7,153.2s248.2-147,252.7-153.2C513.1,260,513.1,252,508.7,246z M256,385.4
			c-102.5,0-191.3-97.5-217.6-129.4C64.6,224.1,153.2,126.6,256,126.6c102.5,0,191.3,97.5,217.6,129.4
			C447.4,287.9,358.7,385.4,256,385.4z"/>
	</g>
</g>
<g>
	<g>
		<linearGradient id="SVGID_2_" gradientUnits="userSpaceOnUse" x1="154.722" y1="256" x2="357.272" y2="256">
			<stop  offset="0" style="stop-color:#493C94"/>
			<stop  offset="1" style="stop-color:#A071BF"/>
		</linearGradient>
		<path class="st1" d="M256,154.7c-55.8,0-101.3,45.4-101.3,101.3S200.2,357.3,256,357.3S357.3,311.8,357.3,256
			S311.8,154.7,256,154.7z M256,323.5c-37.2,0-67.5-30.3-67.5-67.5s30.3-67.5,67.5-67.5s67.5,30.3,67.5,67.5S293.2,323.5,256,323.5z
			"/>
	</g>
</g>
</svg>
