<svg id="Layer_1" data-name="Layer 1" xmlns="http://www.w3.org/2000/svg" viewBox="0 0 158.8 63.51"><defs><style>.cls-1{fill:#fff;}</style></defs><title>Taillz_Text</title><path class="cls-1" d="M37.71,18a4.59,4.59,0,0,0-3.3.5c-1.8,1.1-2.4,3.4-2.8,5.4-.5,2.7-.9,5.4-1.4,8.1-1.4,8.6-2.9,17.1-4.1,25.7-.5,3.2.2,6.4,4,6.5a4.3,4.3,0,0,0,3.8-1.7c1.4-2,1.5-4.9,1.7-7.2.4-3.7,1-7.5,1.5-11.2,1.1-7.4,2.4-14.7,3.9-22C41.51,19.76,39.71,18.26,37.71,18Z" transform="translate(-4.11 -2.05)"/><path class="cls-1" d="M75,28.86a5.8,5.8,0,0,0,4,1.2,6.35,6.35,0,0,0,4.4-1.5,5.06,5.06,0,0,0,1.6-4,3.68,3.68,0,0,0-1.5-3.2,5.73,5.73,0,0,0-3.8-1.1,6.26,6.26,0,0,0-4.3,1.5,4.5,4.5,0,0,0-1.7,3.7A3.94,3.94,0,0,0,75,28.86Z" transform="translate(-4.11 -2.05)"/><path class="cls-1" d="M162.21,57.76a2.39,2.39,0,0,0-2.1-1l-15.9.7a20.37,20.37,0,0,1,3.9-5.6,58,58,0,0,1,5.6-5.5,23.58,23.58,0,0,1,5.2-3.5,7.51,7.51,0,0,0,2.9-2.1,4.72,4.72,0,0,0,1-3.2,4.15,4.15,0,0,0-.7-2.7,2,2,0,0,0-1.7-.9,4.94,4.94,0,0,0-1.5.3,4.91,4.91,0,0,1-1.2.3,14.35,14.35,0,0,1-2.4.5c-1.3,0-2.7-.1-4.3-.2a28.61,28.61,0,0,1-3-.3,62.44,62.44,0,0,0-6.9-.4,2.31,2.31,0,0,0-2,1.2,5,5,0,0,0-.7,2.7,4.09,4.09,0,0,0,.7,2.5,2.39,2.39,0,0,0,2.1,1l8.9-.3a40.86,40.86,0,0,0-6.9,5.8,22.53,22.53,0,0,0-2.1,2.4c-2.6,2.3-9,5.2-10.2,6.1a7.18,7.18,0,0,1-4.5,1.5,3.69,3.69,0,0,1-2.7-1.1,7.11,7.11,0,0,1-1.5-3.7,96,96,0,0,0,11.3-19.6q4.2-9.9,4.2-17.4c0-3.5-.6-6.2-1.7-8a5.3,5.3,0,0,0-4.8-2.8c-3.6,0-6.7,2.4-9.2,7.1a62,62,0,0,0-5.9,16.9,89.24,89.24,0,0,0-2,17.3l-.1.1a135.3,135.3,0,0,1-9.4,9.9,7.18,7.18,0,0,1-4.5,1.5,3.69,3.69,0,0,1-2.7-1.1,7.11,7.11,0,0,1-1.5-3.7,96,96,0,0,0,11.3-19.6q4.2-9.9,4.2-17.4c0-3.5-.6-6.2-1.7-8a5.3,5.3,0,0,0-4.8-2.8c-3.6,0-6.7,2.4-9.2,7.1a62,62,0,0,0-5.9,16.9,92,92,0,0,0-2,17.5c0,1.5.1,3,.2,4.3l-.3.3c-1.9,2.3-3.4,3.9-4.5,5a4.54,4.54,0,0,1-2.8,1.6,1.67,1.67,0,0,1-1.7-1,7.2,7.2,0,0,1-.5-2.9,55.24,55.24,0,0,1,1.5-9.4,49.82,49.82,0,0,0,1.2-7.3c0-1.4-1.1-2.1-3.2-2.1a4.68,4.68,0,0,0-3,.8,5.56,5.56,0,0,0-1.5,2.8,63.33,63.33,0,0,0-1.9,8.3q-.45,2.7-.6,4.8a41.84,41.84,0,0,1-4.3,4.6,4.75,4.75,0,0,1-2.9,1.5,1.43,1.43,0,0,1-1.2-.6,2.46,2.46,0,0,1-.5-1.5,58.8,58.8,0,0,1,1.5-10.1,48.63,48.63,0,0,0,.9-6.3c0-1.5-1-2.2-3.1-2.2a12.65,12.65,0,0,0-2.8.3,4.27,4.27,0,0,0-.8-1.9c-.3-.4-.9-.5-1.9-.5a14.11,14.11,0,0,0-8.2,2.7,19.23,19.23,0,0,0-6.2,7.3,20,20,0,0,0-2.3,9.6,11.29,11.29,0,0,0,2.3,7.4,7.6,7.6,0,0,0,6.2,2.8c3.3,0,6.1-1.8,8.3-5.3a9.91,9.91,0,0,0,2.6,3.9,6.15,6.15,0,0,0,3.8,1.4,9.08,9.08,0,0,0,5.6-2.2,26,26,0,0,0,3.5-3.2,9.48,9.48,0,0,0,1.1,2.5c1.2,1.9,3.2,2.9,6,2.9,3.5,0,7.2-2.4,11.2-7.1l.9,2.1a8.63,8.63,0,0,0,8.2,5,12.68,12.68,0,0,0,7.2-2.1,93.94,93.94,0,0,0,8.8-8.5,18.54,18.54,0,0,0,2,5.6,8.63,8.63,0,0,0,8.2,5,12.68,12.68,0,0,0,7.2-2.1,38.75,38.75,0,0,1,3.5-2c0,.3-.1.6-.1.9,0,2.9,1.1,4.3,3.3,4.3a12.68,12.68,0,0,0,2.8-.6,8.1,8.1,0,0,1,2.4-.6c1.6,0,4.3.1,8.2.3,1,0,2.2.1,3.5.1s2.7.1,4.3.1a4.64,4.64,0,0,0,2.3-1.7,5.07,5.07,0,0,0,.7-2.8A4.41,4.41,0,0,0,162.21,57.76Zm-107.9-6.1a11.91,11.91,0,0,1-1.8,4.4,3.3,3.3,0,0,1-2.7,1.6,2.79,2.79,0,0,1-2.2-.9,4.56,4.56,0,0,1-.8-2.9,16.68,16.68,0,0,1,1.3-6.7,13.81,13.81,0,0,1,3.6-5.1,7.85,7.85,0,0,1,4.9-2Zm42.8-22.8a85.1,85.1,0,0,1,3.2-13c1.2-3.5,2.3-5.2,3.3-5.2q1.8,0,1.8,4.8a41.64,41.64,0,0,1-2.6,13.5,83.17,83.17,0,0,1-7.1,14.8A88,88,0,0,1,97.11,28.86Zm26.3,0a85.1,85.1,0,0,1,3.2-13c1.2-3.5,2.3-5.2,3.3-5.2q1.8,0,1.8,4.8A39.44,39.44,0,0,1,129,29a83.17,83.17,0,0,1-7.1,14.8A79.22,79.22,0,0,1,123.41,28.86Z" transform="translate(-4.11 -2.05)"/><path class="cls-1" d="M13.61,15a9.81,9.81,0,0,1,3.1-2.4,13.07,13.07,0,0,1,4.1-1.2,33.35,33.35,0,0,1,10.2.8c7.2,1.5,14.2,4.4,21.6,7.4a47.46,47.46,0,0,0,6.4,2,18.78,18.78,0,0,0,7.5.1,11.44,11.44,0,0,0,4.1-1.8,9.38,9.38,0,0,0,2.9-3.7,7.68,7.68,0,0,0-2-9.1,2.86,2.86,0,0,0-3.4-.2,2.9,2.9,0,0,0-.8,4l.4.6a1.52,1.52,0,0,1-.2,1.8,2.91,2.91,0,0,1-2.3,1.2,11.68,11.68,0,0,1-4.3-.6,31.89,31.89,0,0,1-4.8-1.9C49,8.56,41.41,5,33,3.16a36.92,36.92,0,0,0-13.4-.8,18.89,18.89,0,0,0-7.1,2.5,13.86,13.86,0,0,0-3.1,2.3,19.78,19.78,0,0,0-2.7,3,15.73,15.73,0,0,0-2.6,7.7,14.7,14.7,0,0,0,.6,4.5,9,9,0,0,0,2.6,4,13.3,13.3,0,0,0,1.9,1.4,13.27,13.27,0,0,0,2.1.9,11.44,11.44,0,0,0,4.5.3,9.59,9.59,0,0,0,4.2-1.7,8.07,8.07,0,0,0,2.8-3.8,3,3,0,0,0-1-3.3,2.9,2.9,0,0,0-4.1.6l-.5.2a2.76,2.76,0,0,1-.9.7,3.42,3.42,0,0,1-2.8,0c-.2-.1-.4-.3-.6-.4l-.4-.4a3,3,0,0,1-.4-2.4A6.83,6.83,0,0,1,13.61,15Z" transform="translate(-4.11 -2.05)"/></svg>