<svg id="Layer_1" data-name="Layer 1" xmlns="http://www.w3.org/2000/svg" xmlns:xlink="http://www.w3.org/1999/xlink" viewBox="0 0 520.74 719.64"><defs><style>.cls-1{fill:url(#linear-gradient);}.cls-2{fill:url(#linear-gradient-2);}</style><linearGradient id="linear-gradient" x1="407.43" y1="277.08" x2="463.78" y2="76.73" gradientUnits="userSpaceOnUse"><stop offset="0" stop-color="#5e499e"/><stop offset="1" stop-color="#8a64b4"/></linearGradient><linearGradient id="linear-gradient-2" x1="297.71" y1="246.22" x2="354.06" y2="45.87" xlink:href="#linear-gradient"/></defs><title>TialZ_PURPLE</title><path class="cls-1" d="M475.23,327.3c-1-2.66-2-5.3-3-7.93-25.94-70-30.26-92.62-24.86-138.93C451.75,146.55,469,101.37,496.06,63c14.05-20.33,23.78-23.72,21.62-27.11-.59-1-2.38-1.48-5.15-1.42-4.6.09-11.9,1.62-21,4.48-45.87,14.13-134.7,60.66-152.06,127.29v0c1,31.93,7.9,49.69,35.53,102.28,19.33,36.36,38.87,74.75,54.1,111,18.82,44.87,31,86.53,28,117.13-6.49,75.68-48.64,132.16-121.06,162.66a183.19,183.19,0,0,1-62.69,11.29c-57.74,0-117.37-25-167.85-66.49,73.17,101,184.19,155.43,272.7,133.14,80-20.34,134-70,152.4-153.62C544.3,525.52,509,418.3,475.23,327.3Z" transform="translate(-12.92 -22.62)"/><path class="cls-2" d="M332.85,648.07c67-27.11,108.09-77.94,114.57-151.36,2.21-27.65-8.24-65-24.46-105.15-.94-2.32-1.9-4.66-2.87-7-4.29-10.3-8.93-20.75-13.81-31.24-11.44-24.64-24.17-49.5-36.72-73.12l0-.36c-.81-1.7-1.63-2.76-2.44-4.15h0l-.8-1.49h0c-17.08-31.39-26.77-51.37-32.06-69.65h0c-.27-.92-.53-1.84-.77-2.75h0c-3.81-14.22-5-27.68-5-45.07,0-1.41,0-2.86.07-4.32a200.84,200.84,0,0,1,4.14-33.53l0,.12h0l0-.12a258.51,258.51,0,0,1,25-69.44v0c9.73-19.2,17.29-23.72,15.13-26h0c-5.9-7-84.75,32.62-121.24,88.46h0c-10.3,15.76-17.23,32.81-18.18,50.47-.24,2.81-.32,5.86-.31,8.9,0,7.58.54,15.46.61,19.66a3.88,3.88,0,0,1-.3,1.93c-2.16,0-4.32-75.67-13-76.8-7,0-24.16,57-12.16,117.39,1,4.91,2.13,9.84,3.52,14.76,4.32,15.82,5.4,14.69,8.64,28.24.71,3.72,4.71,14.3,8.89,28.83h0c1.75,6.1,3.54,12.9,5.14,20.17q-.89-4.09-1.85-8,1,3.88,1.85,8c.21,1,.41,2,.62,2.93,5.71,28,7.75,62.34-7.09,90.38-5.41,10.17-18.38,38.41-61.61,58.74-15.13,6.78-33.51,10.17-50.8,10.17-48.64,0-96.2-21.47-102.68-24.85a348.48,348.48,0,0,0,69,104.65C138,626,209.81,659.37,273.4,659.37,295,659.37,314.48,656,332.85,648.07Zm-.55-530.3Z" transform="translate(-12.92 -22.62)"/></svg>