<svg id="Layer_1" data-name="Layer 1" xmlns="http://www.w3.org/2000/svg" xmlns:xlink="http://www.w3.org/1999/xlink" viewBox="0 0 309.5 297.6"><defs><style>.cls-1{fill:url(#linear-gradient);}.cls-2{fill:#ececec;}.cls-3{fill:#fff;}.cls-10,.cls-4,.cls-9{fill:none;}.cls-4{stroke:#473c8f;stroke-width:0.72px;}.cls-10,.cls-4,.cls-8,.cls-9{stroke-linecap:round;stroke-linejoin:round;}.cls-5{fill:#9493c8;}.cls-6{fill:#473c8f;}.cls-7,.cls-8{fill:#f18f80;}.cls-10,.cls-8,.cls-9{stroke:#e8512f;}.cls-8,.cls-9{stroke-width:0.9px;}.cls-10{stroke-width:0.77px;}</style><linearGradient id="linear-gradient" x1="4.1" y1="-40.1" x2="313.6" y2="-40.1" gradientTransform="translate(-4.1 274.6)" gradientUnits="userSpaceOnUse"><stop offset="0.01" stop-color="#544399"/><stop offset="1" stop-color="#825fb0"/></linearGradient></defs><title>Food</title><rect class="cls-1" y="171.4" width="309.5" height="126.2"/><circle class="cls-2" cx="154.8" cy="114.4" r="114.4"/><path class="cls-3" d="M173.8,86.9a7.84,7.84,0,0,0-1.1-5.2c.4-1.1.8-2.1,1.1-3.2.5-1.7.9-3.6.4-4.9v-.1a6.72,6.72,0,0,0-2-3.8,5.72,5.72,0,0,1-1.6-1.5l-.3-.6c-.1-.2-.1-.5-.2-.7-.5-3.6.4-8.4-1.2-10.4h0a4.59,4.59,0,0,0-1.5-2.1c-.1-.1-.3-.2-.4-.3l-.6-.6a14,14,0,0,0-.2-3.1h0c-.1-1.1-.3-2.2-1.2-2.1a7.66,7.66,0,0,0-.6-4.3,18.06,18.06,0,0,0-1.2-3c-.4-.9-.8-1.6-1-2.1a8.08,8.08,0,0,0-2.1-3c-.6-.5-1.3-.7-1.9-1.2-.9-.7-1.7-1.9-2.9-2s-2.1.9-3.1,1.4a5.74,5.74,0,0,1-1.2.5h0a23.63,23.63,0,0,0-3.8,1.1,6.06,6.06,0,0,0-1.9,2c-1.3,1.3-2.4,2.9-4.2,4.7a.09.09,0,0,1-.1.1h0l-.6.6c-2.7,2.8-4.2,6.5-5.7,10a5.88,5.88,0,0,0-.6,3.4c.2.7.7,1.4.6,2.1a9.33,9.33,0,0,1-.5,1c-.1.1-.2.3-.3.4a12.76,12.76,0,0,0-2.2,3.5l-.1-.3a2.58,2.58,0,0,0,.3-1.9,2.79,2.79,0,0,0-2.2-2.1,2,2,0,0,0-.2-2.3c-.5-.7-1.1-1.1-1.7-1.8-1.2-1.4-1.6-3.5-3-4.7-.7-.6-1.6-1-2.3-1.6l-1-2a4.45,4.45,0,0,0-2.3-2.3,4.14,4.14,0,0,0-2.4-.6c-1.3.2-2.8,1.1-3.9.3-.4-.2-.6-.6-.9-.9a3.68,3.68,0,0,0-3.2-.8,12.06,12.06,0,0,0-3.1,1.3,9.08,9.08,0,0,1-1.4.6,14.89,14.89,0,0,0-2,.2,2.77,2.77,0,0,0-1.7,1.8,5.59,5.59,0,0,0-.2,2.6c.1,2.1.4,4.3,1.7,5.8-2-.3-4.2-.5-6.2-1-2.5-.6-5.6-1.7-7.1.4-.4.5-.6,1.3-1.2,1.6s-1.3-.1-1.9-.3A6.25,6.25,0,0,0,79.6,57a10,10,0,0,0-3.1,5.7,8.14,8.14,0,0,0,0,4.1,3.8,3.8,0,0,0,3.1,2.5l-.4.4.2-.3a2.59,2.59,0,0,0-1.1,1.4c-.7.9-1.5,2-1.4,2.9h0l-1.6,2.8c-.1.2-.2.3-.3.5l-.4.6.1-.1a.3.3,0,0,1-.1.2h0a9.54,9.54,0,0,0,3.1,12.6c-1.2,3,.3,6.3,1.7,9.2,2.5,4.9,5.1,9.7,8.7,13.8a37.86,37.86,0,0,0,15.3,10.5l1.5,1.2a17.45,17.45,0,0,1,1.3,3.2,18.75,18.75,0,0,0,.7,2.2,4.37,4.37,0,0,0,2.8,3.1h0a.09.09,0,0,1,.1.1h0l.3.3c0,.1.1.1.1.2a.37.37,0,0,0,.1.3,6.26,6.26,0,0,0,1.1,4v.1l.1.1.2.2a3.41,3.41,0,0,0,.6.6,2.44,2.44,0,0,0,.7.4c1.3.8,2.8,1.4,4.2,2.2a9.47,9.47,0,0,1,1.5,1.4l-.6-.8a4.34,4.34,0,0,1,1.2,1.1c.12.34.25.67.4,1a11.5,11.5,0,0,0-1-1.3l1,1.3a12.85,12.85,0,0,0,2.3,4.1,7,7,0,0,0,1.2,1.3l.1.1.2.2c2.9,2.4,2.5,2.5,3.4,4.1a4.13,4.13,0,0,0,3.1,3,3.53,3.53,0,0,1,1.1.3c1.4.5,1.5,2.7,3.2,3.2.2.1.5.1.8.2s.3.2.5.2c1.3.5,2.7.6,4,1a11.51,11.51,0,0,1,3.6,1.5,10.59,10.59,0,0,0,3.3,4c0,.2,0,.3.1.4a.28.28,0,0,0,.5,0,12.21,12.21,0,0,0,8.6,1.7h.1a16.77,16.77,0,0,0,5.8-1.6,9.1,9.1,0,0,0,4.3-4.8s5.9-2.9,6.3-14.3v-.1a62.88,62.88,0,0,0-.6-20.3,13.32,13.32,0,0,1-.4-2.8c.4-3.9,3-13.5,1.1-15.2h0a7.39,7.39,0,0,0-1.4-2.8.76.76,0,0,0,.3-.1c.2-.1.3-.2.5-.3s.1-.1.2-.1l.1-.1a2.26,2.26,0,0,0,.9-1.6h0a4.57,4.57,0,0,0,.2-1.6c0-1.5-.5-3.1-.4-4.6a4.86,4.86,0,0,1,.2-1.2v-.3c.4-1.3.8-2.5,1.1-3.5v-.1a1.51,1.51,0,0,0,.1-.7c0-.3.1-.5.1-.8a4.08,4.08,0,0,0-1.3-3.5A7.19,7.19,0,0,0,173.8,86.9ZM146.6,168c.1,0,.1.1.2.1a.09.09,0,0,1,.1.1h0Z"/><path class="cls-4" d="M146.3,166.5a13.47,13.47,0,0,0-6.6-4.1,26,26,0,0,1-4-1,7.49,7.49,0,0,1-3.3-2.5c-.3-.4-.5-.8-.9-1a3.76,3.76,0,0,0-1.5-.4,4.13,4.13,0,0,1-3.1-3,8.24,8.24,0,0,0-.4-1.7,3.77,3.77,0,0,0-1.5-1.3,13.44,13.44,0,0,1-5.7-7.9"/><path class="cls-4" d="M119.8,145a11.48,11.48,0,0,0-5.1-4.4,12.5,12.5,0,0,1-2.6-1.2,6.44,6.44,0,0,1-2-4.8,1.23,1.23,0,0,0-.1-.6,1.56,1.56,0,0,0-.8-.6c-1.8-1-2.6-3.1-3.1-5.1a7.49,7.49,0,0,0-1.3-3.2"/><path class="cls-4" d="M105.1,124.5a37.13,37.13,0,0,1-17-11.1c-3.6-4.1-6.2-9-8.7-13.8-1.5-2.9-2.9-6.2-1.7-9.2a9.54,9.54,0,0,1-3.1-12.6"/><path class="cls-4" d="M74.6,77.7c1.1-1,2.2-2,3.2-3,.2-.2.5-.5.5-.8a3.09,3.09,0,0,0-.2-.9,3.13,3.13,0,0,1,1.2-3.5"/><path class="cls-4" d="M79.5,69.5A3.8,3.8,0,0,1,76.4,67a7.15,7.15,0,0,1,0-4.1,11.43,11.43,0,0,1,3.1-5.7,6.57,6.57,0,0,1,6.1-1.5,3.2,3.2,0,0,0,1.9.3c.6-.3.8-1,1.2-1.6,1.5-2.1,4.6-1.1,7.1-.4,4.3,1.1,9.5.6,12.7,3.7a6.54,6.54,0,0,1,1.7,2.6,5.7,5.7,0,0,0,.8,1.8c.6.8,1.8,1.1,2.7,1.6,3.9,1.9,5.3,6.7,6.2,10.9"/><path class="cls-4" d="M120.4,74.3a4.76,4.76,0,0,1,1.5,7.6c-.2.2-.5.5-.5.8a1.61,1.61,0,0,0,.3.9,5.93,5.93,0,0,1,0,5.2c-.5,1-1.3,2.1-.8,3.1.3.5.9.8,1.2,1.3.7,1.1-.2,2.5-1.1,3.4"/><path class="cls-4" d="M122.5,95.2c1.4,2.2,2.8,4.5,4.2,6.7,1.1,1.7,2.1,3.9,1.1,5.6a3.13,3.13,0,0,0-.5,1c-.1.8.7,1.4,1.4,1.9a6.62,6.62,0,0,1,2.2,7.1c-.1.4-.3.7-.2,1.1.1.7.9,1,1.5,1.4a4.38,4.38,0,0,1,1.6,3.6,18.82,18.82,0,0,1-.4,4.1"/><path class="cls-4" d="M133.2,127.4a11,11,0,0,1,3.3,8.6c0,.4-.1.8.1,1.1a2.25,2.25,0,0,0,.9.8,6.39,6.39,0,0,1,3,4.3c.3,1.4.1,3,.9,4.2a13.7,13.7,0,0,0,2.1,2,2,2,0,0,1,.5,2.6,8.93,8.93,0,0,1,3.4,5.6,2.37,2.37,0,0,0,.5,1.4,5.1,5.1,0,0,0,1,.6,4.32,4.32,0,0,1,2.3,4.2"/><path class="cls-4" d="M101.6,53.8"/><path class="cls-4" d="M102.8,55.7c-1.9-1.5-2.3-4.1-2.3-6.5a10.83,10.83,0,0,1,.2-2.6,2.77,2.77,0,0,1,1.7-1.8,12.21,12.21,0,0,1,2-.2,6,6,0,0,0,1.4-.6,12.06,12.06,0,0,1,3.1-1.3,3.68,3.68,0,0,1,3.2.8,7.65,7.65,0,0,0,.9.9c1.1.8,2.6-.1,3.9-.3a3.9,3.9,0,0,1,4.28,3.47,1.79,1.79,0,0,1,0,.23"/><path class="cls-4" d="M130.9,64.2a2.57,2.57,0,0,0,1-2.8,2.79,2.79,0,0,0-2.2-2.1,2,2,0,0,0-.2-2.3c-.5-.7-1.1-1.1-1.7-1.8-1.2-1.4-1.6-3.5-3-4.7-1.1-.9-2.7-1.4-3.2-2.7"/><path class="cls-4" d="M157.1,159.1c-.6-2.4-2.3-14.1-3.1-16.5a7,7,0,0,0-1.4-2.7c-.5-.6-1.2-1.1-1.8-1.7-1.8-1.9-2.2-4.7-2.3-7.4a2.6,2.6,0,0,0-.2-1.2,4.86,4.86,0,0,0-.6-.9,9,9,0,0,1-1.2-7.5"/><path class="cls-4" d="M146.1,121.7c-1.4-1.6-2.9-3.2-3.4-5.3-.7-2.9.5-6.5-1.4-8.8a16.18,16.18,0,0,0-1.9-1.8c-2.3-2.7-.8-6.8-.4-10.3a1.92,1.92,0,0,0-.2-1.5,3.87,3.87,0,0,0-1.2-1,7.07,7.07,0,0,1-2.5-5.3,19.68,19.68,0,0,1,.9-5.9"/><path class="cls-4" d="M135.8,81.4A8.47,8.47,0,0,1,132.18,70c.1-.2.21-.38.32-.57a5.35,5.35,0,0,1-1.1-4.9A12.1,12.1,0,0,1,134,60a4,4,0,0,0,.8-1.4c.1-.7-.4-1.4-.6-2.1a5.22,5.22,0,0,1,.6-3.4c1.5-3.6,3-7.3,5.7-10,1.1-1.2,2.5-2.2,3.5-3.4,1.1-1.4,1.8-3.1,3.3-4s3.5-.8,5-1.6c1-.5,2-1.5,3.1-1.4s1.9,1.3,2.9,2c.6.5,1.3.7,1.9,1.2a7.78,7.78,0,0,1,2.1,3c.9,1.8,3.5,7,2.8,9.5"/><path class="cls-4" d="M165.9,163.6c3.6-2.2,5-6.7,5.8-10.8a64,64,0,0,0-.1-23.9,13.32,13.32,0,0,1-.4-2.8,23.18,23.18,0,0,1,.2-2.5c.3-2.1.6-4.1.8-6.2.4-3.2.7-6.9-1.4-9.3,1.5-.4,2.2-2.2,2.1-3.7a35.7,35.7,0,0,1-.4-4.6c.1-1.8.9-3.4,1.3-5.1s.3-3.8-1.1-4.9a7.58,7.58,0,0,0-.2-8.3"/><path class="cls-4" d="M172.6,82.1a22.62,22.62,0,0,0,1.8-6.3,7.24,7.24,0,0,0-2.1-6,5.72,5.72,0,0,1-1.6-1.5,5.74,5.74,0,0,1-.4-1.4,30.3,30.3,0,0,1-.6-6c-.1-2.4-.1-5.2-2.1-6.5a2,2,0,0,1-1-.8,2.45,2.45,0,0,1-.1-1.2c0-1.4.2-4-1.2-4"/><path class="cls-4" d="M161.3,147.7a465.4,465.4,0,0,0-5.5-102.1"/><path class="cls-4" d="M146.2,161.9c-6.6-4-11.8-10-15.9-16.5s-7.2-13.7-10.4-20.7c-8.5-18.7-18.3-37-32-52.3"/><path class="cls-4" d="M147.2,168.3a.28.28,0,0,1-.5,0,1.23,1.23,0,0,1-.1-.6c.3-2.5,2.5-4.4,4.8-5.5,3.7-1.7,8.3-2.1,11.7,0a2.56,2.56,0,0,1,1.2,1.1,2.73,2.73,0,0,1-.2,3,6.27,6.27,0,0,1-2.5,2,16.53,16.53,0,0,1-15-.3"/><path class="cls-4" d="M115.6,117c-.5-.4-1.1-.8-1.6-1.2a13.11,13.11,0,0,0-2.5-1.6c-4.3-2.4-9.6-2.6-13.8-5.2"/><path class="cls-4" d="M101.8,88.8a63.86,63.86,0,0,1,1-16.9"/><path class="cls-4" d="M128.1,141a74.36,74.36,0,0,1,1.8-17.6"/><path class="cls-4" d="M158.4,63.3c.6-3.4,4.1-7.8,5.4-11"/><path class="cls-4" d="M160.5,83.1a111.58,111.58,0,0,0-21.3-16.8"/><path class="cls-4" d="M161.8,103.9a105.19,105.19,0,0,0,6.8-8.1"/><path class="cls-4" d="M162,125.4a49.69,49.69,0,0,0-11.5-9"/><path class="cls-5" d="M211,94.8c12.2,6.8,6.5,15.3,2.8,52.6-3.8,37.8-32.5,49.2-51.3,38.7s-26.1-37,4.8-59.5C197.2,104.9,198.6,88,211,94.8Z"/><path class="cls-6" d="M187.3,107.9l13.4-.7a.56.56,0,0,1,.6.5l.7,6.8c0,.4.5.6.9.4l5.4-3.3a.48.48,0,0,1,.68.07s0,0,0,0l8.1,10.7a.58.58,0,0,0,.79.16.66.66,0,0,0,.21-.26c1.3-3.9,5.3-18.7-4.9-26a.79.79,0,0,1-.2-.8c1.2-1.7,5-7.8,1.4-12.3l-3.4-.3s3,6.5-3.4,10.4c0,0-3.6-1.4-7.4,2.1-2.9,2.7-10.5,9-13.6,11.5C186.5,107.3,186.7,108,187.3,107.9Z"/><path class="cls-7" d="M207.1,182.7c.4-1-.5-2.1-1.4-2.8-3.8-2.6-8.9-2.1-13.5-1.5l-34.1,4.8c-7.5,1-15,2.1-22.4,3.6-7.8,1.6-15.6,3.7-23.3,5.8a5.38,5.38,0,0,0-2.2.9,3.31,3.31,0,0,0-1,3.5"/><path class="cls-7" d="M207.5,182.8c.3,2,.7,3.9,1,5.9A2.6,2.6,0,0,1,207,192c-10.2,5.7-22.7,4.8-34.4,4.9-20.7.3-41.5,4.7-61.8.9a2.74,2.74,0,0,1-1.7-.8"/><path class="cls-8" d="M195.9,177.8a8,8,0,0,0-1.4,9.3"/><path class="cls-8" d="M185.1,179.6a8.2,8.2,0,0,0,.1,8.9"/><path class="cls-8" d="M172.8,181.2a8.83,8.83,0,0,0,0,6.4"/><path class="cls-8" d="M162.5,182.4a6.35,6.35,0,0,0,0,5.7"/><path class="cls-8" d="M151.3,183.8a3.76,3.76,0,0,0-.2,4.6"/><path class="cls-8" d="M137.7,186.6a4.63,4.63,0,0,0-.4,4.4"/><path class="cls-8" d="M127.9,189.2a4.57,4.57,0,0,0,.3,2.8"/><path class="cls-8" d="M144.3,185.7a3.17,3.17,0,0,0-.5,2.5"/><path class="cls-9" d="M207.4,183.3c9.6-1.7,18.6-5.8,27.9-8.7a214.6,214.6,0,0,1,24-5.7"/><path class="cls-9" d="M207.8,184.2,234,177c3.3-.9,6.6-1.8,10-2.4a136.1,136.1,0,0,1,15.6-1.5"/><path class="cls-9" d="M208,184.9c7.9-1.8,15.9-3.7,23.8-5.5q3.75-.9,7.5-1.5c5.5-.8,11-.5,16.5-1.3"/><path class="cls-9" d="M208.4,186.6a342.61,342.61,0,0,0,52.3-8.5"/><path class="cls-9" d="M208.3,187.4a383.69,383.69,0,0,0,53.5-4.9"/><path class="cls-9" d="M207.9,187.6a218.36,218.36,0,0,0,54.7-2.4"/><path class="cls-3" d="M153.4,146.8a7.37,7.37,0,0,0-3.8-2.2h.1c-.6-1.4-2.2-2.1-3.7-2.5a21.11,21.11,0,0,0-7.5-.8,11.35,11.35,0,0,0-5.3,1.9l-2.3.6c-.6-1-1.2-1.9-1.8-2.9a7.88,7.88,0,0,1-1.1-2.5,3.5,3.5,0,0,0-.3-1,1.81,1.81,0,0,0-2.1-.6,5.73,5.73,0,0,0-4.1,3.3l-.2.1a2.5,2.5,0,0,0,.5,1.9l.2.3h-.1c-.1,0-.2-.1-.3-.1l2.3,3.3a14.9,14.9,0,0,0-4.5,1.4c-2,1.1-6.1,4.7-6,5.1l.1.2a5.46,5.46,0,0,0-1.8,1.1,5.11,5.11,0,0,0-1.3,3.2,17.71,17.71,0,0,0,1.7,10.1c.6,1.4,1.4,2.7,1.9,4.2a32.9,32.9,0,0,1,.9,4.3,40.46,40.46,0,0,0,3.2,10.2,21.19,21.19,0,0,0,4.3,6.4,10.71,10.71,0,0,0,6.9,3.1,7.53,7.53,0,0,0,6.3-3.1c1.9,1.9,4.3,3.5,7,3.6a9,9,0,0,0,3.6-.6,18.5,18.5,0,0,0,4.6-2.5c4-3.1,6.7-8.2,6.3-13.3a32.89,32.89,0,0,0-.8-4.3,41.87,41.87,0,0,1-1.1-11.1c.2-2.9.7-5.7.7-8.6A11.52,11.52,0,0,0,153.4,146.8Zm-6.1-2.3a1.42,1.42,0,0,0-.6.2c-.1-.1-.2-.1-.3-.2Z"/><path class="cls-3" d="M121.6,142.2l-.3-.4A1.31,1.31,0,0,0,121.6,142.2Z"/><path class="cls-10" d="M126.9,155a11.79,11.79,0,0,0-12.8-3.6,4.58,4.58,0,0,0-3.3,4.4,17.71,17.71,0,0,0,1.7,10.1c.6,1.4,1.4,2.7,1.9,4.2a32.9,32.9,0,0,1,.9,4.3,40.46,40.46,0,0,0,3.2,10.2,21.19,21.19,0,0,0,4.3,6.4,10.71,10.71,0,0,0,6.9,3.1c2.6.1,5-.8,6.3-3"/><path class="cls-10" d="M148.3,151.9a11.33,11.33,0,0,1-5.5.6l-5.1-.3a16.14,16.14,0,0,0-6.9.7c-3.1,1.4-4.9,4.7-5.4,8s.3,6.7,1.1,10c1.7,7,3.8,14.2,8.7,19.5,2,2.2,4.6,4,7.5,4.1a9,9,0,0,0,3.6-.6,18.5,18.5,0,0,0,4.6-2.5c4-3.1,6.7-8.2,6.3-13.3a32.89,32.89,0,0,0-.8-4.3,41.87,41.87,0,0,1-1.1-11.1c.2-2.9.7-5.7.7-8.6s-.6-5.9-2.5-8-5.3-3.1-7.7-1.6c-2,1.2-3,5.7-3.1,8"/><path class="cls-10" d="M113.7,151.4c-.1-.4,4-4,6-5.1a15,15,0,0,1,7.5-1.6"/><path class="cls-10" d="M131.9,143.9a11.52,11.52,0,0,1,6.8-3.1,19,19,0,0,1,7.5.8c1.5.4,3.1,1,3.7,2.5"/><path class="cls-10" d="M136.9,150.6c6.3,3.8.9.6-.9-.5a5.46,5.46,0,0,1-1.8-1.9c-.6-.9-1.1-1.7-1.7-2.6-1.1-1.7-2.2-3.5-3.3-5.3a7.88,7.88,0,0,1-1.1-2.5,3.5,3.5,0,0,0-.3-1,1.81,1.81,0,0,0-2.1-.6,6.1,6.1,0,0,0-4.3,3.5"/><path class="cls-10" d="M130.3,153.3c.3-2.6-1.1-5.1-2.3-7.5a13.59,13.59,0,0,0-1.9-3,3.81,3.81,0,0,0-3.2-1.2c-.3,0-.5.1-.8.1a.47.47,0,0,1-.5-.44v-.06"/><path class="cls-10" d="M121.5,139.6a2.5,2.5,0,0,0,.5,1.9"/></svg>