<svg id="Layer_1" data-name="Layer 1" xmlns="http://www.w3.org/2000/svg" xmlns:xlink="http://www.w3.org/1999/xlink" viewBox="0 0 309.5 297.6"><defs><style>.cls-1{fill:url(#linear-gradient);}.cls-2{fill:#ececec;}.cls-3{fill:#fff;}.cls-4{fill:#e8512f;opacity:0.15;isolation:isolate;}.cls-5,.cls-7,.cls-8,.cls-9{fill:none;}.cls-6{fill:#f18f80;stroke:#e8512f;stroke-miterlimit:10;}.cls-7,.cls-8,.cls-9{stroke:#473c8f;stroke-linecap:round;stroke-linejoin:round;stroke-width:1.36px;}.cls-8{stroke-dasharray:4 4;}.cls-9{stroke-dasharray:4.05 4.05;}</style><linearGradient id="linear-gradient" x1="4.33" y1="341.71" x2="313.83" y2="341.71" gradientTransform="matrix(1, 0, 0, -1, -4.33, 576.21)" gradientUnits="userSpaceOnUse"><stop offset="0.01" stop-color="#544399"/><stop offset="1" stop-color="#825fb0"/></linearGradient></defs><title>travel</title><rect class="cls-1" y="171.4" width="309.5" height="126.2"/><circle class="cls-2" cx="155.2" cy="114.4" r="114.4"/><circle class="cls-3" cx="153.8" cy="115.5" r="68.1"/><path class="cls-4" d="M159.2,47.6a68.26,68.26,0,0,1-30.8,129.2,45.2,45.2,0,0,1-5.2-.3,68.22,68.22,0,1,0,36-128.9Z"/><circle class="cls-5" cx="153.8" cy="115.5" r="68.1"/><path class="cls-6" d="M141.8,129.9s-6.1-8.9-11.2-17.1-5.2-18.4-3-28.3-1.2-15-6.3-17.6-2-11.6,4.6-9.3S152,71.4,156.3,70s5.8-5.8,7.4-3.6-1.7,5.6,1.6,7.3-14.3,1.8-12.2,6,2,9.9,4,9.7,5.2-9.7,8.5-8.8,3.1,5.5,4.8,5.7,4.1,6,3.5,7.7-7.5.8-8.4,4-4.1.2-11.9,5.4-8.5.6-16.5,5,2.4,6.4,2.4,6.4a13.7,13.7,0,0,0,1.7,8.9c2.6,4.1,5.3,3.4,12.2,10.2s3.4,10.6,6.8,13.8,6.4,7.9-1.1,13.1-19.2,11.7-24,18.5c-1.5,2.1-7-2.4-1.1-16.1s5.2-11,2.6-17.9C134.3,138.3,139.67,132.1,141.8,129.9Z"/><path class="cls-6" d="M177.3,68s8.4,1,7.9,6.4-5.5,16.3-.8,17.2,7.6-5,16-4.4,9.2-9.9,11.8-9.4l-2.8-4.5s-17.5-6.7-23.5-7.3S174.4,66,177.3,68Z"/><path class="cls-6" d="M193.6,174.3s-1.4-2.2,4-6.1,2.9-8.5-2.1-11.4-14.5-9.7-8.8-18.4,11.2-8.8,12.6-11.2-.9-9.6,3.2-9.4,6.1-2.3,7.6-3.3,8.5-4,14,.2c0,0,1.2,18.7-7.6,34.5A79.81,79.81,0,0,1,193.6,174.3Z"/><path class="cls-7" d="M36.4,121.1s-.8,0-2,.1"/><path class="cls-8" d="M30.4,121.8c-5.9,1.3-13.5,4.9-9,15.2,6.7,15.5,268.2,0,275.5-22.7,4-12.3-14.8-14.9-23.3-15.5"/><path class="cls-7" d="M271.6,98.8a9.55,9.55,0,0,0-2,0"/><path class="cls-7" d="M49.4,163.1s-.6.4-1.6,1.2"/><path class="cls-9" d="M44.5,166.8c-5.7,4.8-13.5,13.2-5.9,18.1C53.2,194.2,289.5,83.7,289.5,60.1c0-12.9-18.5-7.2-26.6-4.1"/><path class="cls-7" d="M260.9,56.73l-1.9.8"/></svg>